<svg width="290" height="290" viewBox="0 0 290 290" fill="none" xmlns="http://www.w3.org/2000/svg">
<circle cx="145" cy="145" r="145" fill="#49261D"/>
<g filter="url(#filter0_d_28_104)">
<path d="M148.38 270.72C147.22 270.72 146.1 270.68 145.02 270.68C144.14 270.64 143.26 270.6 142.42 270.56C142.34 270.56 142.26 270.56 142.18 270.56C141.02 270.32 139.9 270 139.02 269.12C138.46 268.6 137.98 268 137.7 267.32C137.46 266.72 137.26 266.16 137.02 265.6C136.98 265.44 136.94 265.28 136.9 265.12C136.74 264.28 136.54 263.44 136.5 262.6C136.46 261.68 136.38 260.76 136.38 259.88C136.38 258.08 136.82 256.36 137.7 254.8C138.06 254.16 138.5 253.52 139.06 253.04C139.42 252.72 139.82 252.44 140.26 252.28C140.78 252.08 141.22 251.84 141.7 251.6C142.02 251.4 142.38 251.24 142.78 251.12C143.5 250.96 144.26 250.84 145.02 250.72C145.22 250.68 145.42 250.68 145.62 250.68C146.1 250.64 146.58 250.56 147.02 250.52C147.22 250.52 147.3 250.4 147.34 250.24C147.62 249.8 147.7 249.28 147.7 248.8C147.74 248.32 147.7 247.8 147.74 247.32C147.74 246.6 147.74 245.88 147.78 245.12C147.86 244.56 147.9 243.92 148.18 243.4C148.3 243.2 148.42 243.04 148.62 242.92C149.3 242.6 150.02 242.44 150.74 242.48C150.9 242.48 151.02 242.52 151.14 242.56C151.58 242.64 151.98 242.8 152.38 242.92C152.74 243 152.94 243.24 153.14 243.48C153.38 243.84 153.58 244.2 153.54 244.64C153.34 247.4 153.42 250.16 153.42 252.92C153.42 255.6 153.42 258.32 153.42 261.04C153.42 262.68 153.5 264.32 153.66 266C153.74 266.92 153.66 267.88 153.5 268.8C153.46 268.96 153.42 269.16 153.38 269.36C153.26 270.16 152.66 270.72 151.86 270.76C151.02 270.8 150.22 270.72 149.42 270.72C149.06 270.72 148.7 270.72 148.38 270.72ZM147.58 258.72C147.58 258.12 147.58 257.56 147.58 257C147.58 256.8 147.54 256.64 147.5 256.44C147.42 255.96 147.34 255.88 146.82 255.84C146.34 255.76 145.86 255.72 145.38 255.8C144.86 255.88 144.34 256 143.86 256.2C143.5 256.36 143.22 256.6 143.06 257C142.98 257.16 142.9 257.32 142.82 257.52C142.38 258.36 142.14 259.24 142.1 260.2C142.06 260.92 142.02 261.6 142.06 262.32C142.06 263.04 142.18 263.72 142.5 264.4C142.62 264.64 142.82 264.84 143.06 264.96C143.54 265.2 144.06 265.36 144.62 265.4C145.38 265.44 146.14 265.4 146.9 265.4C147.14 265.4 147.3 265.28 147.42 265.08C147.46 264.96 147.54 264.84 147.54 264.68C147.58 264.28 147.66 263.88 147.66 263.44C147.66 261.88 147.62 260.28 147.58 258.72Z" fill="#FFEDE3"/>
</g>
<g filter="url(#filter1_d_28_104)">
<path d="M126.108 259.28C126.749 256.879 127.248 254.368 127.669 251.842C127.864 250.657 127.933 249.488 127.799 248.319C127.72 247.692 127.601 247.057 127.169 246.563C126.902 246.265 126.635 245.967 126.259 245.811C126.062 245.772 125.921 245.662 125.733 245.584C125.003 245.153 123.904 245.138 123.168 245.563C122.713 245.799 122.392 246.183 122.149 246.584C121.765 247.282 121.429 247.949 121.155 248.711C120.865 249.55 120.576 250.39 120.279 251.269C120.193 251.497 120.146 251.732 120.06 251.96C119.81 253.011 119.521 254.055 119.232 255.098C119.099 255.561 119.005 256.032 118.919 256.464C118.685 257.844 118.451 259.225 118.178 260.598C117.827 262.16 117.483 263.682 117.132 265.244C117.015 265.832 116.71 266.342 116.263 266.743C116.012 266.978 115.745 267.089 115.408 267.144C114.914 267.168 114.49 267.043 114.027 266.91C113.713 266.847 113.423 266.667 113.172 266.495C112.669 266.15 112.528 265.633 112.511 265.099C112.488 264.809 112.542 264.535 112.605 264.221C113.26 260.925 113.955 257.638 114.65 254.35C115.18 251.682 115.868 249.046 116.901 246.519C117.221 245.726 117.629 244.91 118.02 244.172C118.49 243.246 119.093 242.468 119.845 241.762C120.355 241.251 121.037 240.898 121.742 240.63C122.746 240.3 123.805 240.102 124.856 240.148C125.5 240.195 126.159 240.367 126.786 240.491C127.061 240.546 127.289 240.632 127.516 240.718C128.709 241.078 129.659 241.838 130.444 242.81C131.363 243.93 131.796 245.24 132.135 246.613C132.521 248.158 132.499 249.703 132.352 251.264C132.305 251.704 132.29 252.19 132.204 252.621C132.048 253.61 131.892 254.599 131.705 255.54C131.315 257.502 130.893 259.416 130.464 261.37C130.191 262.743 129.878 264.108 129.558 265.513C129.433 266.141 129.309 266.768 129.144 267.388C129.035 267.734 128.926 268.079 128.738 268.409C128.612 268.628 128.377 268.785 128.189 268.911C127.993 269.076 127.813 269.163 127.593 269.241C127.46 269.296 127.287 269.344 127.13 269.312C126.409 269.25 125.687 269.188 125.012 268.891C124.408 268.648 124.188 268.319 124.234 267.676C124.242 267.433 124.249 267.189 124.296 266.954C124.46 266.334 124.632 265.675 124.718 265.04C125.1 263.117 125.6 261.218 126.108 259.28Z" fill="#FFEDE3"/>
</g>
<g filter="url(#filter2_d_28_104)">
<path d="M109.867 239.88C110.225 239.119 110.62 238.374 110.942 237.598C111.095 237.228 111.409 237.098 111.722 236.968C111.968 236.897 112.236 236.878 112.494 236.985C113.064 237.178 113.686 237.349 114.24 237.578C114.684 237.762 115.066 238.094 115.448 238.425C115.698 238.658 115.828 238.972 115.884 239.255C115.924 239.575 115.928 239.879 115.932 240.184C115.908 240.347 115.868 240.547 115.807 240.695C114.581 243.132 113.599 245.712 112.558 248.225C111.425 250.96 110.345 253.673 109.19 256.355C108.777 257.353 108.327 258.335 107.877 259.318C107.463 260.316 107.013 261.298 106.6 262.296C106.348 262.798 106.076 263.248 105.67 263.599C105.093 264.053 104.474 264.187 103.809 263.911C103.35 263.764 102.922 263.544 102.479 263.36C101.496 262.91 100.499 262.496 99.4638 262.068C98.5552 261.648 97.6097 261.213 96.7011 260.794C96.3685 260.656 95.999 260.503 95.6817 260.328C95.6078 260.297 95.5339 260.267 95.4599 260.236C94.4431 259.555 93.5092 258.779 93.0329 257.629C92.7515 256.95 92.5224 256.248 92.5239 255.513C92.5534 254.919 92.546 254.31 92.5755 253.716C92.5782 253.501 92.5808 253.285 92.6573 253.1C92.8156 252.3 92.9956 251.552 93.2279 250.782C93.4384 249.96 93.7229 249.169 94.0444 248.393C94.5585 247.047 95.353 245.861 96.3385 244.84C96.9862 244.113 97.8097 243.588 98.618 243.1C98.7378 243.02 98.8793 242.992 98.9991 242.912C99.4235 242.828 99.6136 242.474 99.6774 242.11C99.7323 241.873 99.698 241.643 99.7159 241.39C99.6245 240.357 99.5331 239.323 99.5832 238.261C99.5911 237.615 99.5251 236.938 99.496 236.277C99.5102 235.72 99.4505 235.132 99.5909 234.584C99.7186 233.858 100.083 233.186 100.852 232.899C101.076 232.775 101.381 232.771 101.633 232.789C102.033 232.869 102.418 232.985 102.84 233.116C103.166 233.165 103.499 233.302 103.81 233.388C103.899 233.382 104.01 233.427 104.084 233.458C104.445 233.737 104.805 234.017 105.083 234.391C105.493 234.864 105.5 235.474 105.575 236.024C105.725 237.125 105.749 238.218 105.795 239.362C105.791 240.313 105.876 241.257 105.908 242.223C105.921 242.402 105.971 242.596 106.14 242.709C106.449 243.01 106.84 243.215 107.307 243.236C107.56 243.254 107.806 243.183 108.009 243.007C108.346 242.714 108.626 242.353 108.868 241.977C109.095 241.638 109.248 241.269 109.438 240.915C109.576 240.582 109.729 240.212 109.867 239.88ZM104.374 252.931C104.337 252.916 104.337 252.916 104.3 252.901C104.79 251.718 105.264 250.573 105.739 249.427C105.785 249.316 105.815 249.242 105.861 249.131C105.888 248.753 105.743 248.476 105.3 248.292C104.893 248.124 104.471 247.993 104.049 247.861C103.517 247.684 102.99 247.596 102.47 247.597C102.077 247.607 101.726 247.721 101.425 248.03C101.29 248.147 101.155 248.264 101.004 248.418C100.277 249.026 99.718 249.747 99.3137 250.619C99.0012 251.269 98.741 251.897 98.4654 252.562C98.1899 253.227 98.0775 253.917 98.076 254.652C98.095 254.92 98.2032 255.181 98.379 255.384C98.7676 255.805 99.1868 256.151 99.6889 256.403C100.376 256.73 101.093 256.984 101.795 257.275C101.98 257.352 102.122 257.324 102.278 257.259C102.586 257.04 102.819 256.79 102.957 256.457C103.394 255.296 103.884 254.114 104.374 252.931Z" fill="#FFEDE3"/>
</g>
<g filter="url(#filter3_d_28_104)">
<path d="M92.0385 231.132C92.5384 230.456 93.0716 229.802 93.5383 229.104C93.7605 228.771 94.0934 228.705 94.4263 228.639C94.6815 228.617 94.9477 228.65 95.1805 228.806C95.7016 229.106 96.2782 229.395 96.7771 229.728C97.1762 229.995 97.4864 230.395 97.7967 230.795C97.9961 231.072 98.0623 231.405 98.062 231.693C98.0394 232.015 97.9837 232.315 97.9279 232.614C97.8722 232.769 97.7944 232.958 97.7055 233.091C96.0281 235.241 94.5612 237.581 93.05 239.842C91.4056 242.303 89.8165 244.754 88.161 247.159C87.561 248.057 86.9277 248.933 86.2945 249.809C85.6944 250.707 85.0612 251.582 84.4612 252.48C84.1168 252.924 83.7614 253.312 83.2951 253.578C82.6402 253.91 82.0079 253.92 81.4092 253.52C80.9879 253.287 80.611 252.987 80.2119 252.72C79.3361 252.087 78.4381 251.487 77.5069 250.865C76.6977 250.276 75.8551 249.665 75.0459 249.076C74.7466 248.876 74.414 248.654 74.1369 248.42C74.0704 248.376 74.0038 248.331 73.9373 248.287C73.0729 247.421 72.3084 246.477 72.0656 245.256C71.9221 244.535 71.8342 243.803 71.9791 243.082C72.124 242.505 72.2355 241.906 72.3803 241.329C72.4249 241.119 72.4695 240.908 72.5807 240.742C72.8921 239.988 73.2145 239.289 73.5925 238.579C73.9594 237.814 74.3928 237.094 74.8595 236.395C75.6262 235.176 76.6368 234.167 77.8026 233.359C78.5798 232.771 79.4898 232.417 80.3777 232.097C80.5109 232.041 80.6551 232.041 80.7883 231.986C81.221 231.986 81.4764 231.676 81.6099 231.332C81.71 231.111 81.7213 230.878 81.7882 230.634C81.9002 229.602 82.0122 228.57 82.2684 227.539C82.4022 226.907 82.4695 226.23 82.57 225.576C82.6926 225.032 82.7487 224.444 82.9933 223.934C83.2603 223.247 83.749 222.659 84.5591 222.527C84.8032 222.449 85.1027 222.505 85.3467 222.572C85.7237 222.728 86.0785 222.917 86.4666 223.128C86.7771 223.239 87.0764 223.439 87.3647 223.584C87.4535 223.595 87.5532 223.661 87.6198 223.706C87.9189 224.05 88.2181 224.394 88.4174 224.816C88.7274 225.36 88.6159 225.959 88.582 226.514C88.5143 227.623 88.3246 228.699 88.1459 229.83C87.9563 230.762 87.8555 231.705 87.6992 232.659C87.6768 232.836 87.6877 233.036 87.8317 233.18C88.0754 233.536 88.4191 233.813 88.8738 233.925C89.1178 233.992 89.373 233.97 89.6061 233.837C89.9946 233.615 90.3388 233.316 90.6498 232.995C90.9386 232.707 91.1608 232.374 91.4163 232.064C91.6163 231.764 91.8385 231.432 92.0385 231.132ZM84.1051 242.862C84.0719 242.839 84.0719 242.839 84.0386 242.817C84.7497 241.753 85.4386 240.722 86.1275 239.691C86.1942 239.591 86.2387 239.525 86.3053 239.425C86.4056 239.059 86.3171 238.759 85.918 238.492C85.5522 238.248 85.1641 238.037 84.776 237.826C84.2882 237.548 83.7891 237.359 83.2789 237.258C82.8907 237.191 82.5246 237.235 82.1693 237.479C82.0139 237.568 81.8585 237.656 81.6808 237.778C80.8483 238.232 80.1599 238.83 79.5933 239.606C79.16 240.183 78.7822 240.748 78.3822 241.347C77.9822 241.945 77.7374 242.6 77.5924 243.321C77.5589 243.587 77.6141 243.864 77.747 244.097C78.046 244.586 78.3895 245.008 78.8329 245.352C79.4425 245.808 80.0967 246.197 80.7286 246.619C80.8949 246.73 81.0391 246.73 81.2056 246.697C81.5496 246.542 81.8272 246.343 82.0272 246.043C82.6829 244.99 83.394 243.926 84.1051 242.862Z" fill="#FFEDE3"/>
</g>
<g filter="url(#filter4_d_28_104)">
<path d="M63.9231 205.719C64.1184 206.011 64.1549 206.37 64.0325 206.797C63.9101 207.082 63.7027 207.322 63.4103 207.518C62.9989 207.793 62.2913 207.999 61.2875 208.137C60.2801 208.294 59.0721 208.255 57.6634 208.022C55.9369 207.735 54.7915 207.169 54.2273 206.325C54.0392 206.043 53.9432 205.747 53.9392 205.437C53.9207 205.011 54.0793 204.685 54.4149 204.461C54.5448 204.374 54.6784 204.34 54.8157 204.358C54.8987 204.365 54.962 204.401 55.0054 204.466C55.0633 204.553 55.0923 204.69 55.0925 204.878C55.0712 205.221 55.1437 205.517 55.3101 205.766C55.4909 206.036 55.8704 206.3 56.4485 206.555C57.0085 206.808 57.8176 206.964 58.8758 207.024C59.9232 207.092 60.8729 207.06 61.725 206.929C62.3353 206.835 62.7649 206.704 63.0139 206.538C63.2304 206.393 63.2953 206.256 63.2085 206.126C63.071 205.92 62.6212 205.704 61.8589 205.477C60.8186 205.233 59.2928 205.234 57.2816 205.482C56.9349 205.526 56.7399 205.538 56.6966 205.52C56.6352 205.499 56.59 205.466 56.5611 205.423C56.4598 205.272 56.4469 205.053 56.5225 204.768C56.5728 204.609 56.6504 204.479 56.755 204.377C58.9053 202.393 59.7127 201 59.1774 200.198C58.8664 199.733 58.2448 199.342 57.3127 199.025C56.3735 198.697 55.3729 198.465 54.311 198.329C53.2383 198.2 52.4853 198.187 52.0521 198.288C51.8354 198.339 51.6584 198.262 51.521 198.056C51.4342 197.926 51.3907 197.791 51.3905 197.65C51.3796 197.516 51.4174 197.42 51.504 197.362C51.6556 197.261 52.3219 197.286 53.5029 197.436C55.8795 197.759 57.7165 198.364 59.0139 199.251C59.3428 199.485 59.6013 199.743 59.7894 200.024C60.0136 200.36 60.1368 200.732 60.1589 201.14C60.0336 202.241 59.4804 203.324 58.4993 204.386C58.7087 204.372 59.1385 204.382 59.7885 204.418C60.4314 204.442 61.114 204.526 61.8364 204.67C62.5588 204.814 63.1495 205.053 63.6085 205.389C63.7387 205.49 63.8435 205.6 63.9231 205.719Z" fill="#FFEDE3"/>
</g>
<g filter="url(#filter5_d_28_104)">
<path d="M55.4027 191.69C55.4924 191.906 55.4875 192.099 55.388 192.267C55.3287 192.362 55.257 192.427 55.1728 192.462C55.1126 192.487 55.033 192.498 54.9338 192.497C53.2394 192.353 51.7782 192.296 50.5501 192.326C49.7909 192.33 48.9541 192.317 48.0397 192.288C48.0223 192.45 47.9475 192.558 47.8152 192.613C47.6708 192.673 47.453 192.657 47.1617 192.567C46.3547 192.422 45.8864 192.193 45.7569 191.88L45.7345 191.826C45.702 191.543 45.758 191.372 45.9023 191.312L46.1549 191.208C46.3835 191.113 46.6225 191.078 46.8718 191.101C48.1737 191.182 49.2999 191.23 50.2504 191.245C50.8454 191.252 51.4658 191.27 52.1118 191.298C51.4724 191.014 50.8209 190.734 50.1574 190.459C48.9375 189.964 47.8493 189.463 46.8928 188.957C45.9193 188.444 45.3035 187.91 45.0452 187.355C44.877 186.847 45.0002 186.345 45.4149 185.849C45.8126 185.346 46.3059 184.852 46.8949 184.369C47.4718 183.89 47.9486 183.425 48.3251 182.973C48.6846 182.514 48.7747 182.068 48.5953 181.635C48.406 181.178 47.6667 180.533 46.3773 179.7C45.2341 178.947 44.0888 178.428 42.9416 178.142C42.7565 178.036 42.6316 177.904 42.5668 177.748C42.4422 177.447 42.4762 177.257 42.6687 177.177C42.7649 177.137 42.8981 177.153 43.0682 177.223C46.8376 178.974 48.949 180.396 49.4024 181.491C49.6914 182.189 49.6265 182.815 49.2077 183.369C48.7889 183.923 48.262 184.437 47.6269 184.911C47.2006 185.243 46.8298 185.573 46.5146 185.901C46.104 186.338 45.976 186.744 46.1304 187.117C46.3547 187.658 47.1452 188.24 48.5021 188.861C49.6299 189.339 50.7268 189.758 51.7927 190.12C52.8417 190.475 53.9616 190.899 55.1525 191.392C55.2695 191.47 55.3529 191.57 55.4027 191.69Z" fill="#FFEDE3"/>
</g>
<g filter="url(#filter6_d_28_104)">
<path d="M53.2437 165.454C53.2539 165.505 53.2538 165.604 53.2434 165.752C53.2483 165.977 52.9378 166.152 52.3121 166.276C51.5203 166.434 50.1069 166.436 48.0718 166.283C46.0342 166.118 43.7095 165.843 41.0975 165.46C38.4856 165.077 36.3626 164.749 34.7286 164.477C33.7814 164.32 33.1929 164.231 32.9631 164.21L32.9018 164.203C32.9043 164.216 33.2171 164.286 33.84 164.414C36.2552 164.943 38.7889 165.667 41.4411 166.587C45.6198 168.039 48.0623 169.272 48.7686 170.287C48.9318 170.506 49.035 170.725 49.0782 170.942C49.101 171.057 49.0945 171.224 49.0585 171.444C49.0251 171.676 48.735 171.853 48.1884 171.975C47.8155 172.036 47.3228 171.962 46.7101 171.752L46.5378 171.686C45.55 171.325 44.4283 170.725 43.1728 169.886L43.1536 169.89C43.2021 170 43.2351 170.1 43.2529 170.189C43.3164 170.508 43.2269 170.692 42.9842 170.74C42.8565 170.766 42.7442 170.702 42.6473 170.548C41.9895 169.644 41.4462 168.982 41.0177 168.563C40.7983 168.327 40.6096 168.113 40.4515 167.918L40.4553 167.938L40.3749 167.834C40.3163 167.74 40.2794 167.654 40.2641 167.577C40.2286 167.399 40.2874 167.261 40.4407 167.164C36.9129 165.98 33.7972 165.067 31.0936 164.423C28.1092 163.702 24.9357 163.132 21.573 162.712C21.3739 162.712 21.2092 162.652 21.0791 162.532C20.9873 162.404 20.9313 162.289 20.9109 162.187C20.8906 162.085 20.906 161.995 20.9572 161.919C21.0365 161.784 21.1464 161.702 21.2869 161.674L21.4248 161.667C22.8776 161.829 24.9495 162.167 27.6404 162.68C31.1739 163.358 35.1709 163.997 39.6314 164.597C44.0791 165.199 48.3256 165.39 52.3707 165.169L52.4511 165.173C52.487 165.02 52.5625 164.932 52.6774 164.909C52.7668 164.891 52.8574 164.913 52.9493 164.974C53.1126 165.128 53.2107 165.288 53.2437 165.454ZM47.9368 170.811C47.8708 170.479 46.91 169.886 45.0544 169.034C43.1121 168.146 41.8294 167.605 41.2066 167.41C41.5918 167.745 42.6432 168.425 44.3607 169.451C46.2287 170.566 47.3735 171.082 47.7949 170.998C47.9099 170.975 47.9572 170.913 47.9368 170.811Z" fill="#FFEDE3"/>
</g>
<g filter="url(#filter7_d_28_104)">
<path d="M21.4657 123.436C21.692 122.298 21.9498 121.207 22.1605 120.148C22.3714 119.293 22.5823 118.437 22.7854 117.621C22.801 117.543 22.8166 117.465 22.8322 117.386C23.2939 116.295 23.8263 115.259 24.861 114.568C25.4803 114.12 26.1624 113.766 26.884 113.624C27.5193 113.506 28.1075 113.419 28.7036 113.293C28.8683 113.285 29.033 113.277 29.1978 113.269C30.0528 113.276 30.9157 113.243 31.7474 113.368C32.6575 113.508 33.5754 113.609 34.4385 113.781C36.2039 114.132 37.8051 114.899 39.1634 116.067C39.7209 116.545 40.2627 117.101 40.6243 117.744C40.8679 118.159 41.0645 118.606 41.1355 119.069C41.2303 119.618 41.3798 120.097 41.5215 120.614C41.6553 120.967 41.742 121.351 41.7816 121.767C41.7981 122.504 41.7675 123.273 41.7369 124.042C41.7372 124.246 41.6981 124.442 41.6591 124.638C41.6047 125.117 41.5895 125.603 41.5429 126.043C41.5039 126.239 41.606 126.341 41.7551 126.411C42.132 126.772 42.6264 126.952 43.0972 127.045C43.5602 127.178 44.078 127.24 44.541 127.373C45.2471 127.514 45.9533 127.654 46.6909 127.842C47.2245 128.029 47.8444 128.193 48.2998 128.569C48.4725 128.726 48.6061 128.875 48.6847 129.095C48.8659 129.824 48.8824 130.561 48.7027 131.26C48.6715 131.417 48.6088 131.527 48.5462 131.636C48.3819 132.052 48.1469 132.413 47.9512 132.782C47.8025 133.12 47.5281 133.269 47.2537 133.419C46.8538 133.584 46.4617 133.71 46.0379 133.585C43.37 132.85 40.6474 132.39 37.9405 131.851C35.3119 131.329 32.6442 130.798 29.9765 130.267C28.368 129.947 26.7439 129.706 25.065 129.535C24.147 129.434 23.2211 129.168 22.35 128.832C22.2009 128.761 22.0125 128.683 21.8241 128.605C21.0629 128.331 20.6307 127.633 20.7476 126.841C20.8722 126.009 21.1068 125.24 21.2628 124.456C21.3331 124.103 21.4033 123.75 21.4657 123.436ZM33.3912 124.992C33.9797 125.109 34.5289 125.218 35.0782 125.328C35.2743 125.367 35.4391 125.359 35.643 125.359C36.1294 125.374 36.2235 125.311 36.3642 124.809C36.5363 124.353 36.6691 123.89 36.6843 123.404C36.7073 122.878 36.6911 122.345 36.5885 121.835C36.5018 121.451 36.3211 121.13 35.96 120.895C35.8187 120.785 35.6773 120.675 35.4968 120.558C34.7588 119.962 33.9425 119.555 33.0088 119.329C32.3104 119.149 31.6513 118.977 30.9373 118.876C30.2311 118.735 29.5408 118.72 28.8114 118.902C28.5526 118.973 28.3174 119.13 28.1529 119.342C27.8239 119.766 27.5655 120.244 27.417 120.786C27.2295 121.523 27.1205 122.277 26.9722 123.022C26.9254 123.257 27.0119 123.438 27.1846 123.594C27.2945 123.657 27.3966 123.759 27.5535 123.79C27.9381 123.907 28.3148 124.064 28.7463 124.15C30.2763 124.454 31.8534 124.727 33.3912 124.992Z" fill="#FFEDE3"/>
</g>
<g filter="url(#filter8_d_28_104)">
<path d="M39.3362 111.115C38.4646 110.71 37.6083 110.269 36.8042 109.806C36.2805 109.502 35.6892 109.258 35.1655 108.954C33.8594 108.24 32.6362 107.43 31.5264 106.451C30.7989 105.803 30.139 105.097 29.5989 104.31C28.9199 103.336 28.5545 102.232 28.309 101.048C28.1601 100.467 28.1157 99.8426 28.1082 99.2334C28.1034 98.4088 28.2618 97.6084 28.5679 96.8693C28.8218 96.1519 29.091 95.3975 29.508 94.7043C29.7286 94.2761 30.0385 93.8416 30.3853 93.4224L30.4006 93.3855C30.9935 92.895 31.5646 92.3523 32.1791 91.9141C32.8305 91.4912 33.5163 91.299 34.202 91.1068C35.715 90.6944 37.2011 90.6605 38.7279 90.9465C40.4024 91.2938 42.1076 91.5671 43.7273 92.1514C44.5926 92.4666 45.4795 92.8339 46.3295 93.186C46.3664 93.2013 46.4034 93.2166 46.425 93.2689C47.0876 93.7598 47.879 94.0443 48.5415 94.5352C49.8603 95.4279 51.1638 96.3574 52.2493 97.4998C52.4837 97.7701 52.6965 97.9881 52.9462 98.2214C53.6214 98.8908 54.1615 99.6773 54.7017 100.464C55.1615 101.131 55.397 101.921 55.5433 102.718C55.6299 102.927 55.6642 103.157 55.6985 103.388C55.7698 103.634 55.7888 103.902 55.8232 104.132C55.8269 104.437 55.8306 104.742 55.8343 105.046C55.8787 105.671 55.686 106.24 55.4934 106.81C55.1936 107.638 54.8046 108.473 54.32 109.225C53.8507 109.94 53.4184 110.67 52.6841 111.188C51.8759 111.676 51.0677 112.164 50.1359 112.427C48.9734 112.725 47.783 112.881 46.6168 112.875C45.1614 112.835 43.7238 112.542 42.3628 112.065C41.9933 111.912 41.5778 111.87 41.2452 111.732C40.5863 111.546 39.9428 111.322 39.3362 111.115ZM43.3518 97.9707C42.9083 97.787 42.4802 97.5664 42.0214 97.4196C40.756 97.0254 39.4446 96.742 38.109 96.6217C37.4042 96.5462 36.6535 96.5816 35.9308 96.7585C35.8785 96.7802 35.774 96.8235 35.7217 96.8451C34.9811 97.2744 34.4838 97.8477 34.1624 98.6238C33.8779 99.4151 33.9349 100.218 34.3119 100.98C35.0379 102.363 36.154 103.432 37.3835 104.331C37.9352 104.776 38.5482 105.073 39.1611 105.37C40.8151 106.185 42.5304 106.852 44.3158 107.246C45.1901 107.435 46.0427 107.571 46.9348 107.508C47.827 107.444 48.574 107.104 49.1325 106.383C49.4423 105.949 49.7675 105.477 50.0188 104.975C50.3376 104.415 50.3455 103.768 50.2641 103.129C50.1891 102.578 49.9051 102.114 49.4489 101.752C48.6042 100.969 47.6983 100.334 46.7401 99.7205C45.6863 99.0243 44.5191 98.4975 43.3518 97.9707Z" fill="#FFEDE3"/>
</g>
<g filter="url(#filter9_d_28_104)">
<path d="M47.1455 83.4809C49.1186 84.9918 51.2472 86.414 53.4202 87.7698C54.4402 88.4032 55.4936 88.9146 56.6248 89.2376C57.2348 89.4046 57.867 89.5384 58.4885 89.3283C58.8659 89.1955 59.2432 89.0628 59.5319 88.7746C59.6431 88.6084 59.7985 88.5198 59.9428 88.3757C60.6201 87.8661 61.0538 86.857 60.9438 86.0137C60.8999 85.5033 60.6674 85.0593 60.3905 84.6819C59.8919 84.0601 59.4043 83.4938 58.8058 82.9495C58.1408 82.3609 57.4758 81.7722 56.7775 81.1613C56.6002 80.9947 56.4006 80.8613 56.2233 80.6947C55.3475 80.0615 54.494 79.3949 53.6404 78.7284C53.2636 78.4285 52.8644 78.1618 52.4986 77.9173C51.3123 77.1728 50.126 76.4283 48.962 75.6505C47.6539 74.7283 46.379 73.8283 45.0709 72.9062C44.572 72.5728 44.2175 72.0954 44.0184 71.5294C43.8967 71.2076 43.897 70.9191 43.975 70.5864C44.1419 70.1206 44.4196 69.777 44.7195 69.4001C44.8973 69.134 45.1749 68.9346 45.4302 68.7685C45.9409 68.4362 46.4733 68.5033 46.9723 68.6924C47.2496 68.7815 47.4824 68.937 47.7485 69.1148C50.5422 70.9815 53.3137 72.8815 56.0852 74.7815C58.3468 76.2926 60.5195 77.9368 62.459 79.8581C63.0685 80.4578 63.6669 81.1463 64.1987 81.7903C64.8746 82.5787 65.3619 83.4334 65.727 84.399C66.0036 85.0649 66.0694 85.8305 66.0464 86.5848C65.9677 87.6387 65.7447 88.6924 65.2999 89.646C65.0109 90.2226 64.5998 90.7658 64.2443 91.2979C64.0887 91.5307 63.9221 91.7081 63.7555 91.8854C62.9668 92.8497 61.9012 93.4366 60.7027 93.7904C59.3155 94.2105 57.9399 94.1092 56.5423 93.8969C54.9672 93.6623 53.5478 93.0507 52.1618 92.317C51.7737 92.1058 51.3302 91.9057 50.9643 91.6612C50.1107 91.1389 49.257 90.6166 48.4587 90.0832C46.7958 88.9721 45.1884 87.8499 43.5476 86.7055C42.3836 85.9277 41.2417 85.1167 40.0666 84.2834C39.5345 83.9278 39.0024 83.5723 38.4924 83.1834C38.2153 82.9502 37.9382 82.7169 37.7056 82.4171C37.5505 82.2173 37.4953 81.9399 37.4511 81.7179C37.3737 81.4738 37.3629 81.2741 37.3742 81.0411C37.3743 80.8969 37.3967 80.7194 37.4856 80.5864C37.8191 79.9433 38.1526 79.3002 38.6856 78.7904C39.141 78.3249 39.5294 78.2477 40.1059 78.5367C40.3277 78.6368 40.5495 78.7369 40.749 78.8702C41.259 79.2591 41.8021 79.6701 42.3565 79.9924C43.9862 81.0813 45.5492 82.27 47.1455 83.4809Z" fill="#FFEDE3"/>
</g>
<g filter="url(#filter10_d_28_104)">
<path d="M71.2843 75.9001C71.85 76.5223 72.3874 77.1729 72.9814 77.7668C73.2642 78.0497 73.2642 78.3891 73.2642 78.7285C73.2359 78.9831 73.1511 79.2376 72.9531 79.4356C72.5571 79.8882 72.1611 80.3973 71.7369 80.8215C71.3975 81.161 70.9449 81.3872 70.4924 81.6135C70.1812 81.7549 69.8418 81.7549 69.559 81.6984C69.2478 81.6135 68.965 81.5004 68.6822 81.3872C68.5407 81.3024 68.371 81.1892 68.2579 81.0761C66.476 79.0114 64.4678 77.1163 62.5445 75.193C60.4514 73.0999 58.3584 71.0635 56.3219 68.9704C55.5583 68.2068 54.8229 67.4148 54.0875 66.6228C53.3238 65.8592 52.5884 65.0672 51.8247 64.3035C51.457 63.8793 51.1459 63.455 50.9762 62.9459C50.7782 62.2388 50.8914 61.6165 51.4005 61.1074C51.7116 60.7397 52.0793 60.4286 52.4187 60.0892C53.2107 59.3538 53.9743 58.5901 54.7663 57.7982C55.5017 57.1193 56.2654 56.4122 57.0008 55.7334C57.2553 55.4788 57.5382 55.196 57.821 54.9697C57.8776 54.9132 57.9341 54.8566 57.9907 54.8C59.0089 54.1212 60.0837 53.5555 61.3283 53.5555C62.0636 53.5555 62.799 53.6121 63.4779 53.8949C64.0153 54.1495 64.5809 54.3758 65.1183 54.6303C65.3163 54.7152 65.5143 54.8 65.6557 54.9414C66.3346 55.394 66.9568 55.8465 67.5791 56.3557C68.2579 56.8648 68.8802 57.4305 69.4741 58.0244C70.5206 59.0144 71.3126 60.2023 71.8783 61.5034C72.3026 62.3802 72.4723 63.3419 72.6137 64.2752C72.642 64.4167 72.6137 64.5581 72.642 64.6995C72.5571 65.1238 72.8117 65.4349 73.1228 65.6329C73.3208 65.7743 73.5471 65.8309 73.7733 65.944C74.7633 66.2551 75.7532 66.5663 76.7149 67.0188C77.3089 67.2734 77.9594 67.4714 78.5817 67.6976C79.0908 67.9239 79.6565 68.0936 80.109 68.433C80.7313 68.829 81.2121 69.423 81.1838 70.2432C81.2121 70.4978 81.099 70.7806 80.9858 71.0069C80.7595 71.3463 80.505 71.6574 80.2221 71.9969C80.0524 72.2797 79.7979 72.5343 79.5999 72.7888C79.5716 72.8737 79.4868 72.9585 79.4302 73.0151C79.0342 73.2414 78.6382 73.4676 78.1857 73.5808C77.5917 73.7788 77.026 73.5525 76.4886 73.4111C75.4138 73.1282 74.3956 72.7322 73.3208 72.3363C72.444 71.9686 71.5389 71.6857 70.6338 71.3463C70.4641 71.2897 70.2661 71.2615 70.0964 71.3746C69.7004 71.5443 69.361 71.8272 69.163 72.2514C69.0499 72.4777 69.0216 72.7322 69.1064 72.9868C69.2478 73.4111 69.4741 73.807 69.7287 74.1747C69.955 74.5142 70.2378 74.797 70.4924 75.1081C70.7469 75.3627 71.0298 75.6455 71.2843 75.9001ZM61.3283 65.8309C61.3565 65.8026 61.3565 65.8026 61.3848 65.7743C62.2899 66.6794 63.1667 67.5562 64.0435 68.433C64.1284 68.5179 64.185 68.5745 64.2698 68.6593C64.6092 68.829 64.9204 68.8007 65.2598 68.4613C65.5709 68.1502 65.8537 67.8108 66.1366 67.4714C66.5043 67.0471 66.7871 66.5946 66.9851 66.1137C67.1265 65.746 67.1548 65.3783 66.9851 64.9824C66.9285 64.8127 66.872 64.6429 66.7871 64.445C66.5043 63.5399 66.0517 62.7479 65.4012 62.0408C64.9204 61.5034 64.4395 61.0226 63.9304 60.5134C63.4213 60.0043 62.8273 59.6366 62.1485 59.3538C61.8939 59.2689 61.6111 59.2689 61.3565 59.3538C60.8191 59.5518 60.3383 59.8063 59.914 60.174C59.3484 60.6831 58.8392 61.2488 58.3018 61.7862C58.1604 61.9277 58.1321 62.0691 58.1321 62.2388C58.217 62.6065 58.3584 62.9176 58.613 63.1722C59.5181 64.0207 60.4232 64.9258 61.3283 65.8309Z" fill="#FFEDE3"/>
</g>
<g filter="url(#filter11_d_28_104)">
<path d="M106.154 43.9513C105.372 44.362 104.467 44.477 103.538 44.4289C103.055 44.4125 102.602 44.47 102.135 44.4906C101.704 44.4958 101.371 44.6336 101.017 44.8236C100.869 44.8849 100.7 44.9983 100.62 45.1182C100.422 45.3731 100.262 45.6128 100.101 45.8525C99.5852 46.8022 98.135 47.273 97.2465 46.905C96.7762 46.7101 96.3581 46.537 95.94 46.3638C95.7309 46.2772 95.5958 46.16 95.4823 45.9905C95.022 45.4019 94.7618 44.7736 94.9234 44.0139C95.0226 43.6265 95.1589 43.2237 95.3104 42.8578C95.3447 42.6271 95.4466 42.455 95.4809 42.2243C95.6922 41.2709 96.3611 40.6908 97.2174 40.2495C98.1476 39.7776 99.1633 39.6167 100.173 39.5449C100.819 39.537 101.471 39.4399 102.118 39.4321C102.979 39.4216 103.62 38.9829 104.2 38.3964C104.53 38.0433 104.844 37.6532 105.227 37.3216C105.726 36.855 106.385 36.6687 107.077 36.7717C107.591 36.862 108.061 37.0568 108.531 37.2516C108.673 37.2796 108.777 37.3229 108.86 37.4185C109.388 38.0657 109.805 38.7589 109.6 39.6231C109.417 40.435 109.145 41.2406 108.678 41.9966C108.101 42.7984 107.411 43.4308 106.524 43.7982C106.413 43.8441 106.339 43.8748 106.154 43.9513Z" fill="#FFEDE3"/>
</g>
<g filter="url(#filter12_d_28_104)">
<path d="M141.713 20.28C142.873 20.28 143.993 20.32 145.073 20.32C145.953 20.36 146.833 20.4 147.673 20.44C147.753 20.44 147.833 20.44 147.913 20.44C149.073 20.68 150.193 21 151.073 21.88C151.633 22.4 152.113 23 152.393 23.68C152.633 24.28 152.833 24.84 153.073 25.4C153.113 25.56 153.153 25.72 153.193 25.88C153.353 26.72 153.553 27.56 153.593 28.4C153.633 29.32 153.713 30.24 153.713 31.12C153.713 32.92 153.273 34.64 152.393 36.2C152.033 36.84 151.593 37.48 151.033 37.96C150.673 38.28 150.273 38.56 149.833 38.72C149.313 38.92 148.873 39.16 148.393 39.4C148.073 39.6 147.713 39.76 147.313 39.88C146.593 40.04 145.833 40.16 145.073 40.28C144.873 40.32 144.673 40.32 144.473 40.32C143.993 40.36 143.513 40.44 143.073 40.48C142.873 40.48 142.793 40.6 142.753 40.76C142.473 41.2 142.393 41.72 142.393 42.2C142.353 42.68 142.393 43.2 142.353 43.68C142.353 44.4 142.353 45.12 142.313 45.88C142.233 46.44 142.193 47.08 141.913 47.6C141.793 47.8 141.673 47.96 141.473 48.08C140.793 48.4 140.073 48.56 139.353 48.52C139.193 48.52 139.073 48.48 138.953 48.44C138.513 48.36 138.113 48.2 137.713 48.08C137.353 48 137.153 47.76 136.953 47.52C136.713 47.16 136.513 46.8 136.553 46.36C136.753 43.6 136.673 40.84 136.673 38.08C136.673 35.4 136.673 32.68 136.673 29.96C136.673 28.32 136.593 26.68 136.433 25C136.353 24.08 136.433 23.12 136.593 22.2C136.633 22.04 136.673 21.84 136.713 21.64C136.833 20.84 137.433 20.28 138.233 20.24C139.073 20.2 139.873 20.28 140.673 20.28C141.033 20.28 141.393 20.28 141.713 20.28ZM142.513 32.28C142.513 32.88 142.513 33.44 142.513 34C142.513 34.2 142.553 34.36 142.593 34.56C142.673 35.04 142.753 35.12 143.273 35.16C143.753 35.24 144.233 35.28 144.713 35.2C145.233 35.12 145.753 35 146.233 34.8C146.593 34.64 146.873 34.4 147.033 34C147.113 33.84 147.193 33.68 147.273 33.48C147.713 32.64 147.953 31.76 147.993 30.8C148.033 30.08 148.073 29.4 148.033 28.68C148.033 27.96 147.913 27.28 147.593 26.6C147.473 26.36 147.273 26.16 147.033 26.04C146.553 25.8 146.033 25.64 145.473 25.6C144.713 25.56 143.953 25.6 143.193 25.6C142.953 25.6 142.793 25.72 142.673 25.92C142.633 26.04 142.553 26.16 142.553 26.32C142.513 26.72 142.433 27.12 142.433 27.56C142.433 29.12 142.473 30.72 142.513 32.28Z" fill="#FFEDE3"/>
</g>
<g filter="url(#filter13_d_28_104)">
<path d="M163.985 30.7199C163.344 33.121 162.845 35.6319 162.424 38.1583C162.229 39.343 162.159 40.5119 162.294 41.6807C162.373 42.3081 162.491 42.9434 162.923 43.4372C163.19 43.735 163.457 44.0328 163.834 44.1893C164.03 44.2284 164.172 44.338 164.36 44.4163C165.09 44.847 166.188 44.8615 166.925 44.4371C167.38 44.2013 167.701 43.8166 167.944 43.4163C168.328 42.7177 168.664 42.0505 168.938 41.2893C169.227 40.4496 169.517 39.61 169.814 38.731C169.9 38.5035 169.947 38.2681 170.033 38.0405C170.283 36.989 170.572 35.9454 170.861 34.9018C170.994 34.4388 171.088 33.968 171.173 33.5365C171.407 32.1556 171.641 30.7747 171.914 29.4016C172.266 27.8401 172.609 26.3179 172.961 24.7564C173.078 24.168 173.383 23.6577 173.83 23.2572C174.081 23.0216 174.347 22.9115 174.684 22.8562C175.179 22.8322 175.602 22.9572 176.065 23.0901C176.379 23.1525 176.67 23.3327 176.921 23.505C177.423 23.8496 177.565 24.3672 177.581 24.9006C177.605 25.1909 177.55 25.4655 177.488 25.7793C176.833 29.0748 176.138 32.3624 175.443 35.6501C174.912 38.3178 174.225 40.9543 173.192 43.4814C172.871 44.274 172.464 45.0903 172.073 45.8281C171.603 46.7543 171 47.5315 170.247 48.2383C169.738 48.7487 169.056 49.1025 168.35 49.3699C167.346 49.7004 166.288 49.8977 165.236 49.8517C164.593 49.8053 163.934 49.6334 163.306 49.5086C163.032 49.4539 162.804 49.3679 162.576 49.2818C161.384 48.9222 160.434 48.1623 159.648 47.1904C158.729 46.0695 158.296 44.7599 157.958 43.3875C157.572 41.8425 157.594 40.2971 157.741 38.7358C157.788 38.2965 157.803 37.8101 157.889 37.3785C158.044 36.39 158.2 35.4014 158.388 34.4598C158.778 32.4982 159.199 30.5837 159.629 28.6299C159.902 27.2568 160.214 25.8915 160.534 24.487C160.659 23.8593 160.784 23.2316 160.948 22.6117C161.058 22.2664 161.167 21.9212 161.355 21.5915C161.48 21.3717 161.716 21.2146 161.904 21.0889C162.1 20.9239 162.28 20.8374 162.5 20.7588C162.633 20.7037 162.805 20.6565 162.962 20.6877C163.684 20.7497 164.406 20.8117 165.081 21.1091C165.685 21.3516 165.905 21.6809 165.859 22.3242C165.851 22.5674 165.843 22.8106 165.797 23.0459C165.633 23.6658 165.461 24.325 165.375 24.9605C164.993 26.8828 164.493 28.7817 163.985 30.7199Z" fill="#FFEDE3"/>
</g>
<g filter="url(#filter14_d_28_104)">
<path d="M180.226 50.1201C179.868 50.8809 179.472 51.6263 179.151 52.4024C178.998 52.772 178.684 52.9018 178.371 53.0317C178.125 53.103 177.857 53.122 177.598 53.0149C177.029 52.8222 176.407 52.6512 175.852 52.4216C175.409 52.2379 175.027 51.9064 174.644 51.5749C174.395 51.3416 174.265 51.028 174.209 50.745C174.168 50.4251 174.164 50.1205 174.161 49.8159C174.185 49.6528 174.225 49.4527 174.286 49.3049C175.512 46.8685 176.494 44.2879 177.535 41.775C178.667 39.0403 179.748 36.3273 180.902 33.6448C181.316 32.6471 181.766 31.6646 182.216 30.6821C182.629 29.6843 183.08 28.7018 183.493 27.704C183.744 27.202 184.017 26.7522 184.423 26.4005C185 25.947 185.618 25.8134 186.283 26.089C186.742 26.2357 187.17 26.4563 187.614 26.64C188.596 27.0903 189.594 27.5036 190.629 27.9322C191.537 28.3518 192.483 28.7868 193.392 29.2064C193.724 29.3442 194.094 29.4972 194.411 29.672C194.485 29.7026 194.559 29.7332 194.633 29.7638C195.65 30.4448 196.583 31.2213 197.06 32.371C197.341 33.0505 197.57 33.7515 197.569 34.4869C197.539 35.0808 197.547 35.69 197.517 36.2839C197.514 36.4993 197.512 36.7147 197.435 36.8995C197.277 37.6998 197.097 38.4479 196.865 39.2176C196.654 40.0396 196.37 40.831 196.048 41.607C195.534 42.9527 194.74 44.139 193.754 45.1595C193.106 45.887 192.283 46.4118 191.475 46.8997C191.355 46.9799 191.213 47.0079 191.094 47.0882C190.669 47.1721 190.479 47.5264 190.415 47.8896C190.36 48.1266 190.395 48.3573 190.377 48.6097C190.468 49.6433 190.56 50.677 190.509 51.7386C190.502 52.3848 190.568 53.0616 190.597 53.7231C190.582 54.28 190.642 54.8676 190.502 55.4156C190.374 56.142 190.009 56.8135 189.241 57.1013C189.016 57.2249 188.712 57.2286 188.459 57.2106C188.059 57.1315 187.674 57.0153 187.253 56.8839C186.926 56.8354 186.594 56.6976 186.283 56.6121C186.193 56.6184 186.083 56.5725 186.009 56.5419C185.648 56.2627 185.288 55.9834 185.01 55.6086C184.6 55.1356 184.592 54.5264 184.517 53.9758C184.367 52.8746 184.343 51.7823 184.298 50.6378C184.302 49.687 184.217 48.7426 184.184 47.7765C184.172 47.598 184.122 47.4043 183.952 47.2908C183.644 46.9899 183.253 46.7846 182.785 46.764C182.533 46.7461 182.287 46.8174 182.084 46.9932C181.746 47.2862 181.467 47.6468 181.225 48.0227C180.998 48.3616 180.845 48.7312 180.655 49.0854C180.517 49.418 180.364 49.7875 180.226 50.1201ZM185.719 37.0686C185.756 37.0839 185.756 37.0839 185.793 37.0992C185.303 38.2818 184.828 39.4274 184.354 40.573C184.308 40.6839 184.277 40.7578 184.231 40.8687C184.204 41.2472 184.35 41.5238 184.793 41.7075C185.2 41.8759 185.621 42.0073 186.043 42.1387C186.576 42.3161 187.102 42.4042 187.622 42.4031C188.016 42.3931 188.367 42.2785 188.667 41.9702C188.803 41.853 188.938 41.7357 189.088 41.5816C189.816 40.9739 190.375 40.2527 190.779 39.3811C191.091 38.7312 191.352 38.103 191.627 37.4378C191.903 36.7726 192.015 36.0831 192.017 35.3478C191.998 35.0801 191.889 34.8188 191.714 34.6161C191.325 34.1954 190.906 33.8485 190.404 33.5973C189.717 33.2695 188.999 33.0156 188.297 32.7248C188.113 32.6482 187.971 32.6762 187.814 32.7412C187.507 32.9603 187.274 33.21 187.136 33.5426C186.698 34.7035 186.209 35.8861 185.719 37.0686Z" fill="#FFEDE3"/>
</g>
<g filter="url(#filter15_d_28_104)">
<path d="M198.054 58.8676C197.554 59.5438 197.021 60.1978 196.554 60.8962C196.332 61.2288 195.999 61.295 195.666 61.3612C195.411 61.3831 195.145 61.3496 194.912 61.194C194.391 60.8939 193.814 60.6049 193.315 60.2715C192.916 60.0049 192.606 59.6052 192.296 59.2055C192.097 58.9279 192.03 58.595 192.031 58.3066C192.053 57.9849 192.109 57.6854 192.165 57.3859C192.22 57.2306 192.298 57.0421 192.387 56.9091C194.065 54.7586 195.531 52.4193 197.043 50.1577C198.687 47.6966 200.276 45.2464 201.932 42.8408C202.532 41.9428 203.165 41.067 203.798 40.1913C204.398 39.2933 205.031 38.4175 205.631 37.5195C205.976 37.0761 206.331 36.6882 206.797 36.4224C207.452 36.0903 208.085 36.0799 208.683 36.4799C209.105 36.7133 209.482 37.0132 209.881 37.2799C210.756 37.9132 211.654 38.5132 212.586 39.1354C213.395 39.7243 214.237 40.3353 215.047 40.9241C215.346 41.1241 215.679 41.3464 215.956 41.5796C216.022 41.6241 216.089 41.6685 216.155 41.713C217.02 42.5792 217.784 43.523 218.027 44.7436C218.17 45.4649 218.258 46.1972 218.113 46.9181C217.969 47.4948 217.857 48.0938 217.712 48.6705C217.668 48.8813 217.623 49.092 217.512 49.2583C217.201 50.0124 216.878 50.711 216.5 51.4206C216.133 52.1857 215.7 52.9064 215.233 53.6048C214.466 54.8243 213.456 55.8328 212.29 56.6415C211.513 57.2286 210.603 57.5827 209.715 57.9035C209.582 57.9588 209.437 57.9587 209.304 58.014C208.872 58.0135 208.616 58.3239 208.483 58.6677C208.383 58.8895 208.371 59.1224 208.304 59.3664C208.192 60.398 208.08 61.4297 207.824 62.4611C207.69 63.0934 207.623 63.77 207.523 64.4245C207.4 64.968 207.344 65.5559 207.099 66.0659C206.832 66.7535 206.344 67.341 205.534 67.4732C205.289 67.5506 204.99 67.4949 204.746 67.428C204.369 67.2723 204.014 67.0834 203.626 66.8722C203.315 66.7609 203.016 66.5609 202.728 66.4164C202.639 66.4052 202.539 66.3385 202.473 66.2941C202.174 65.9499 201.874 65.6056 201.675 65.1838C201.365 64.6399 201.477 64.041 201.511 63.4863C201.578 62.377 201.768 61.301 201.947 60.1696C202.136 59.2379 202.237 58.2951 202.393 57.3411C202.416 57.1636 202.405 56.9639 202.261 56.8196C202.017 56.4643 201.674 56.1866 201.219 56.0752C200.975 56.0084 200.72 56.0303 200.487 56.1632C200.098 56.3846 199.754 56.6838 199.443 57.0052C199.154 57.2934 198.932 57.626 198.676 57.9363C198.476 58.2356 198.254 58.5682 198.054 58.8676ZM205.987 47.1384C206.021 47.1606 206.021 47.1606 206.054 47.1828C205.343 48.2471 204.654 49.2781 203.965 50.3092C203.898 50.4089 203.854 50.4755 203.787 50.5752C203.687 50.9412 203.775 51.2409 204.175 51.5075C204.54 51.752 204.929 51.9632 205.317 52.1744C205.804 52.4522 206.303 52.6414 206.814 52.7417C207.202 52.8087 207.568 52.7647 207.923 52.521C208.079 52.4324 208.234 52.3438 208.412 52.222C209.244 51.768 209.933 51.1697 210.499 50.3937C210.933 49.8172 211.31 49.2518 211.71 48.6532C212.11 48.0545 212.355 47.4002 212.5 46.6793C212.534 46.413 212.479 46.1356 212.346 45.9025C212.047 45.4141 211.703 44.9921 211.26 44.6478C210.65 44.1923 209.996 43.8033 209.364 43.3811C209.198 43.2699 209.053 43.2698 208.887 43.3029C208.543 43.4579 208.265 43.6573 208.065 43.9566C207.41 45.0098 206.699 46.0741 205.987 47.1384Z" fill="#FFEDE3"/>
</g>
<g filter="url(#filter16_d_28_104)">
<path d="M226.169 84.2813C225.974 83.989 225.938 83.6297 226.06 83.2034C226.182 82.918 226.39 82.6776 226.682 82.4823C227.094 82.2074 227.801 82.0009 228.805 81.8626C229.812 81.7062 231.02 81.7447 232.429 81.978C234.156 82.2651 235.301 82.8308 235.865 83.6753C236.053 83.9568 236.149 84.2528 236.153 84.5634C236.172 84.9895 236.013 85.3147 235.678 85.5389C235.548 85.6257 235.414 85.6602 235.277 85.6423C235.194 85.6351 235.131 85.5991 235.087 85.5341C235.029 85.4475 235 85.3103 235 85.1225C235.021 84.7794 234.949 84.4834 234.782 84.2344C234.602 83.9637 234.222 83.7005 233.644 83.4447C233.084 83.1925 232.275 83.0362 231.217 82.976C230.169 82.9084 229.22 82.9401 228.367 83.071C227.757 83.1656 227.328 83.296 227.079 83.4624C226.862 83.6071 226.797 83.7444 226.884 83.8743C227.022 84.08 227.471 84.2962 228.234 84.5229C229.274 84.7674 230.8 84.7658 232.811 84.5181C233.158 84.4744 233.353 84.4616 233.396 84.4796C233.457 84.5012 233.503 84.5337 233.531 84.577C233.633 84.7285 233.646 84.947 233.57 85.2324C233.52 85.3913 233.442 85.5214 233.338 85.6226C231.187 87.6075 230.38 89.0005 230.915 89.8017C231.226 90.2672 231.848 90.6584 232.78 90.9752C233.719 91.3029 234.72 91.5348 235.782 91.6709C236.854 91.7998 237.607 91.8134 238.04 91.7118C238.257 91.6611 238.434 91.7385 238.572 91.9442C238.658 92.0741 238.702 92.2095 238.702 92.3504C238.713 92.484 238.675 92.5797 238.589 92.6376C238.437 92.7389 237.771 92.7143 236.59 92.5638C234.213 92.2413 232.376 91.6365 231.079 90.7495C230.75 90.5151 230.491 90.2572 230.303 89.9757C230.079 89.64 229.956 89.2682 229.934 88.8602C230.059 87.7586 230.612 86.6764 231.593 85.6136C231.384 85.6283 230.954 85.6179 230.304 85.5825C229.661 85.5579 228.979 85.4737 228.256 85.33C227.534 85.1863 226.943 84.9468 226.484 84.6114C226.354 84.5104 226.249 84.4004 226.169 84.2813Z" fill="#FFEDE3"/>
</g>
<g filter="url(#filter17_d_28_104)">
<path d="M234.69 98.3101C234.6 98.0935 234.605 97.9012 234.705 97.7332C234.764 97.6381 234.836 97.5732 234.92 97.5383C234.98 97.5134 235.06 97.5015 235.159 97.5028C236.853 97.6465 238.315 97.7037 239.543 97.6742C240.302 97.6698 241.139 97.6825 242.053 97.7125C242.071 97.5503 242.145 97.4417 242.278 97.3869C242.422 97.3271 242.64 97.3426 242.931 97.4334C243.738 97.5783 244.206 97.8071 244.336 98.1199L244.358 98.174C244.391 98.4566 244.335 98.6277 244.191 98.6875L243.938 98.7922C243.709 98.8868 243.47 98.9224 243.221 98.8988C241.919 98.818 240.793 98.7701 239.842 98.755C239.247 98.7478 238.627 98.73 237.981 98.7016C238.62 98.9864 239.272 99.2662 239.935 99.541C241.155 100.036 242.244 100.537 243.2 101.043C244.174 101.556 244.789 102.09 245.048 102.645C245.216 103.153 245.093 103.655 244.678 104.151C244.28 104.654 243.787 105.148 243.198 105.631C242.621 106.11 242.144 106.575 241.768 107.027C241.408 107.486 241.318 107.932 241.497 108.365C241.687 108.822 242.426 109.467 243.716 110.3C244.859 111.053 246.004 111.572 247.151 111.858C247.336 111.964 247.461 112.096 247.526 112.252C247.651 112.553 247.617 112.743 247.424 112.823C247.328 112.863 247.195 112.847 247.025 112.777C243.255 111.026 241.144 109.604 240.69 108.509C240.401 107.811 240.466 107.185 240.885 106.631C241.304 106.077 241.831 105.563 242.466 105.089C242.892 104.757 243.263 104.427 243.578 104.099C243.989 103.662 244.117 103.256 243.962 102.883C243.738 102.342 242.948 101.76 241.591 101.139C240.463 100.661 239.366 100.242 238.3 99.8801C237.251 99.5254 236.131 99.1013 234.94 98.6081C234.823 98.5297 234.74 98.4304 234.69 98.3101Z" fill="#FFEDE3"/>
</g>
<g filter="url(#filter18_d_28_104)">
<path d="M236.849 124.546C236.839 124.495 236.839 124.396 236.849 124.248C236.844 124.023 237.155 123.848 237.781 123.724C238.572 123.566 239.986 123.564 242.021 123.717C244.058 123.882 246.383 124.157 248.995 124.54C251.607 124.923 253.73 125.251 255.364 125.523C256.311 125.68 256.9 125.769 257.13 125.789L257.191 125.797C257.188 125.784 256.876 125.714 256.253 125.586C253.837 125.057 251.304 124.333 248.652 123.413C244.473 121.961 242.03 120.728 241.324 119.713C241.161 119.493 241.058 119.275 241.014 119.058C240.992 118.943 240.998 118.776 241.034 118.556C241.068 118.324 241.358 118.147 241.904 118.025C242.277 117.964 242.77 118.038 243.382 118.248L243.555 118.314C244.543 118.675 245.664 119.275 246.92 120.114L246.939 120.11C246.891 120 246.857 119.9 246.84 119.811C246.776 119.492 246.866 119.308 247.108 119.26C247.236 119.234 247.348 119.298 247.445 119.452C248.103 120.356 248.646 121.018 249.075 121.437C249.294 121.673 249.483 121.887 249.641 122.081L249.637 122.062L249.718 122.166C249.776 122.26 249.813 122.346 249.828 122.423C249.864 122.601 249.805 122.739 249.652 122.836C253.18 124.02 256.295 124.933 258.999 125.577C261.983 126.298 265.157 126.868 268.52 127.288C268.719 127.288 268.883 127.348 269.013 127.468C269.105 127.596 269.161 127.711 269.182 127.813C269.202 127.915 269.187 128.005 269.135 128.081C269.056 128.216 268.946 128.298 268.806 128.326L268.668 128.333C267.215 128.171 265.143 127.833 262.452 127.32C258.919 126.642 254.922 126.003 250.461 125.403C246.013 124.801 241.767 124.61 237.722 124.831L237.641 124.827C237.606 124.98 237.53 125.068 237.415 125.091C237.326 125.109 237.235 125.087 237.143 125.025C236.98 124.872 236.882 124.712 236.849 124.546ZM242.156 119.189C242.222 119.521 243.183 120.114 245.038 120.966C246.981 121.854 248.263 122.395 248.886 122.59C248.501 122.255 247.449 121.575 245.732 120.549C243.864 119.434 242.719 118.918 242.298 119.002C242.183 119.025 242.135 119.087 242.156 119.189Z" fill="#FFEDE3"/>
</g>
<g filter="url(#filter19_d_28_104)">
<path d="M269.253 166.564C269.027 167.702 268.769 168.793 268.558 169.852C268.347 170.707 268.136 171.563 267.933 172.379C267.918 172.457 267.902 172.535 267.886 172.614C267.425 173.705 266.892 174.741 265.858 175.432C265.238 175.88 264.556 176.234 263.835 176.376C263.199 176.494 262.611 176.581 262.015 176.707C261.85 176.715 261.686 176.723 261.521 176.731C260.666 176.724 259.803 176.757 258.971 176.632C258.061 176.492 257.143 176.391 256.28 176.219C254.515 175.868 252.914 175.101 251.555 173.933C250.998 173.455 250.456 172.899 250.094 172.256C249.851 171.841 249.654 171.394 249.583 170.931C249.488 170.382 249.339 169.903 249.197 169.386C249.063 169.033 248.977 168.649 248.937 168.233C248.92 167.496 248.951 166.727 248.982 165.958C248.981 165.754 249.02 165.558 249.059 165.362C249.114 164.883 249.129 164.397 249.176 163.957C249.215 163.761 249.113 163.659 248.963 163.589C248.587 163.228 248.092 163.048 247.621 162.955C247.158 162.822 246.641 162.76 246.178 162.627C245.471 162.486 244.765 162.346 244.028 162.158C243.494 161.971 242.874 161.807 242.419 161.431C242.246 161.274 242.113 161.125 242.034 160.905C241.853 160.176 241.836 159.439 242.016 158.74C242.047 158.583 242.11 158.473 242.172 158.364C242.337 157.948 242.572 157.587 242.767 157.218C242.916 156.88 243.19 156.731 243.465 156.581C243.865 156.416 244.257 156.29 244.681 156.415C247.349 157.15 250.071 157.61 252.778 158.149C255.407 158.671 258.074 159.202 260.742 159.733C262.351 160.053 263.975 160.294 265.654 160.465C266.572 160.566 267.497 160.832 268.369 161.168C268.518 161.239 268.706 161.317 268.894 161.395C269.656 161.669 270.088 162.367 269.971 163.159C269.846 163.991 269.612 164.76 269.456 165.544C269.385 165.897 269.315 166.25 269.253 166.564ZM257.327 165.008C256.739 164.891 256.19 164.782 255.64 164.672C255.444 164.633 255.28 164.641 255.076 164.641C254.589 164.626 254.495 164.689 254.354 165.191C254.182 165.647 254.049 166.11 254.034 166.596C254.011 167.122 254.028 167.655 254.13 168.165C254.217 168.549 254.397 168.87 254.759 169.105C254.9 169.215 255.041 169.325 255.222 169.442C255.96 170.038 256.776 170.445 257.71 170.671C258.408 170.851 259.067 171.023 259.781 171.124C260.487 171.265 261.178 171.28 261.907 171.098C262.166 171.027 262.401 170.87 262.566 170.658C262.895 170.234 263.153 169.756 263.302 169.214C263.489 168.477 263.598 167.723 263.746 166.978C263.793 166.743 263.707 166.562 263.534 166.406C263.424 166.343 263.322 166.241 263.165 166.21C262.781 166.093 262.404 165.936 261.972 165.85C260.442 165.546 258.865 165.273 257.327 165.008Z" fill="#FFEDE3"/>
</g>
<g filter="url(#filter20_d_28_104)">
<path d="M251.382 178.885C252.254 179.29 253.11 179.731 253.914 180.194C254.438 180.498 255.029 180.742 255.553 181.046C256.859 181.76 258.082 182.57 259.192 183.549C259.92 184.197 260.58 184.903 261.12 185.69C261.799 186.664 262.164 187.768 262.41 188.952C262.559 189.533 262.603 190.157 262.61 190.767C262.615 191.591 262.457 192.392 262.151 193.131C261.897 193.848 261.628 194.603 261.211 195.296C260.99 195.724 260.68 196.158 260.333 196.578L260.318 196.615C259.725 197.105 259.154 197.648 258.539 198.086C257.888 198.509 257.202 198.701 256.517 198.893C255.004 199.306 253.517 199.34 251.991 199.053C250.316 198.706 248.611 198.433 246.991 197.849C246.126 197.533 245.239 197.166 244.389 196.814C244.352 196.799 244.315 196.783 244.294 196.731C243.631 196.24 242.84 195.956 242.177 195.465C240.858 194.572 239.555 193.643 238.469 192.5C238.235 192.23 238.022 192.012 237.772 191.779C237.097 191.109 236.557 190.323 236.017 189.536C235.557 188.869 235.322 188.079 235.175 187.282C235.089 187.073 235.054 186.843 235.02 186.612C234.949 186.366 234.93 186.098 234.895 185.868C234.892 185.563 234.888 185.258 234.884 184.954C234.84 184.329 235.033 183.76 235.225 183.19C235.525 182.362 235.914 181.527 236.399 180.775C236.868 180.06 237.3 179.33 238.034 178.812C238.843 178.324 239.651 177.836 240.583 177.573C241.745 177.275 242.936 177.119 244.102 177.125C245.557 177.165 246.995 177.458 248.356 177.935C248.725 178.088 249.141 178.13 249.473 178.268C250.132 178.454 250.776 178.678 251.382 178.885ZM247.367 192.029C247.81 192.213 248.238 192.434 248.697 192.58C249.963 192.975 251.274 193.258 252.61 193.378C253.314 193.454 254.065 193.418 254.788 193.241C254.84 193.22 254.945 193.177 254.997 193.155C255.737 192.726 256.235 192.152 256.556 191.376C256.841 190.585 256.784 189.782 256.407 189.02C255.681 187.637 254.565 186.568 253.335 185.669C252.783 185.224 252.17 184.927 251.557 184.63C249.903 183.815 248.188 183.148 246.403 182.754C245.529 182.565 244.676 182.429 243.784 182.492C242.892 182.556 242.145 182.896 241.586 183.617C241.276 184.051 240.951 184.523 240.7 185.025C240.381 185.585 240.373 186.232 240.454 186.871C240.529 187.422 240.813 187.886 241.27 188.248C242.114 189.031 243.02 189.666 243.978 190.279C245.032 190.976 246.2 191.503 247.367 192.029Z" fill="#FFEDE3"/>
</g>
<g filter="url(#filter21_d_28_104)">
<path d="M243.573 206.519C241.6 205.008 239.472 203.586 237.298 202.23C236.279 201.597 235.225 201.085 234.094 200.763C233.484 200.596 232.852 200.462 232.23 200.672C231.853 200.805 231.475 200.937 231.187 201.225C231.076 201.392 230.92 201.48 230.776 201.624C230.099 202.134 229.665 203.143 229.775 203.986C229.819 204.497 230.051 204.941 230.328 205.318C230.827 205.94 231.314 206.506 231.913 207.051C232.578 207.639 233.243 208.228 233.941 208.839C234.119 209.005 234.318 209.139 234.495 209.305C235.371 209.939 236.225 210.605 237.078 211.272C237.455 211.572 237.854 211.838 238.22 212.083C239.406 212.827 240.593 213.572 241.757 214.35C243.065 215.272 244.34 216.172 245.648 217.094C246.147 217.427 246.501 217.905 246.7 218.471C246.822 218.793 246.822 219.081 246.744 219.414C246.577 219.88 246.299 220.223 245.999 220.6C245.821 220.866 245.544 221.065 245.288 221.232C244.778 221.564 244.245 221.497 243.746 221.308C243.469 221.219 243.236 221.063 242.97 220.885C240.176 219.019 237.405 217.119 234.633 215.219C232.372 213.707 230.199 212.063 228.26 210.142C227.65 209.542 227.052 208.854 226.52 208.21C225.844 207.421 225.357 206.567 224.992 205.601C224.715 204.935 224.649 204.17 224.672 203.415C224.751 202.361 224.974 201.308 225.419 200.354C225.708 199.778 226.119 199.234 226.474 198.702C226.63 198.469 226.797 198.292 226.963 198.115C227.752 197.15 228.818 196.564 230.016 196.21C231.403 195.79 232.779 195.891 234.176 196.103C235.752 196.338 237.171 196.949 238.557 197.683C238.945 197.894 239.388 198.094 239.754 198.339C240.608 198.861 241.462 199.384 242.26 199.917C243.923 201.028 245.53 202.15 247.171 203.295C248.335 204.072 249.477 204.883 250.652 205.717C251.184 206.072 251.716 206.428 252.226 206.817C252.503 207.05 252.78 207.283 253.013 207.583C253.168 207.783 253.223 208.06 253.268 208.282C253.345 208.526 253.356 208.726 253.344 208.959C253.344 209.103 253.322 209.281 253.233 209.414C252.9 210.057 252.566 210.7 252.033 211.21C251.578 211.675 251.189 211.752 250.613 211.463C250.391 211.363 250.169 211.263 249.97 211.13C249.46 210.741 248.917 210.33 248.362 210.008C246.733 208.919 245.169 207.73 243.573 206.519Z" fill="#FFEDE3"/>
</g>
<g filter="url(#filter22_d_28_104)">
<path d="M219.434 214.1C218.869 213.478 218.331 212.827 217.737 212.233C217.455 211.95 217.455 211.611 217.455 211.272C217.483 211.017 217.568 210.762 217.766 210.564C218.162 210.112 218.558 209.603 218.982 209.179C219.321 208.839 219.774 208.613 220.226 208.387C220.538 208.245 220.877 208.245 221.16 208.302C221.471 208.387 221.754 208.5 222.037 208.613C222.178 208.698 222.348 208.811 222.461 208.924C224.243 210.989 226.251 212.884 228.174 214.807C230.267 216.9 232.36 218.937 234.397 221.03C235.161 221.793 235.896 222.585 236.631 223.377C237.395 224.141 238.13 224.933 238.894 225.697C239.262 226.121 239.573 226.545 239.743 227.054C239.941 227.761 239.827 228.384 239.318 228.893C239.007 229.26 238.64 229.571 238.3 229.911C237.508 230.646 236.744 231.41 235.953 232.202C235.217 232.881 234.453 233.588 233.718 234.267C233.463 234.521 233.181 234.804 232.898 235.03C232.841 235.087 232.785 235.143 232.728 235.2C231.71 235.879 230.635 236.445 229.391 236.445C228.655 236.445 227.92 236.388 227.241 236.105C226.704 235.851 226.138 235.624 225.6 235.37C225.402 235.285 225.204 235.2 225.063 235.059C224.384 234.606 223.762 234.154 223.14 233.644C222.461 233.135 221.839 232.57 221.245 231.976C220.198 230.986 219.406 229.798 218.841 228.497C218.416 227.62 218.247 226.658 218.105 225.725C218.077 225.583 218.105 225.442 218.077 225.301C218.162 224.876 217.907 224.565 217.596 224.367C217.398 224.226 217.172 224.169 216.945 224.056C215.956 223.745 214.966 223.434 214.004 222.981C213.41 222.727 212.759 222.529 212.137 222.302C211.628 222.076 211.062 221.906 210.61 221.567C209.988 221.171 209.507 220.577 209.535 219.757C209.507 219.502 209.62 219.219 209.733 218.993C209.959 218.654 210.214 218.343 210.497 218.003C210.666 217.72 210.921 217.466 211.119 217.211C211.147 217.126 211.232 217.042 211.289 216.985C211.685 216.759 212.081 216.532 212.533 216.419C213.127 216.221 213.693 216.448 214.23 216.589C215.305 216.872 216.323 217.268 217.398 217.664C218.275 218.031 219.18 218.314 220.085 218.654C220.255 218.71 220.453 218.739 220.622 218.625C221.018 218.456 221.358 218.173 221.556 217.749C221.669 217.522 221.697 217.268 221.612 217.013C221.471 216.589 221.245 216.193 220.99 215.825C220.764 215.486 220.481 215.203 220.226 214.892C219.972 214.637 219.689 214.355 219.434 214.1ZM229.391 224.169C229.362 224.197 229.362 224.197 229.334 224.226C228.429 223.321 227.552 222.444 226.675 221.567C226.59 221.482 226.534 221.426 226.449 221.341C226.11 221.171 225.798 221.199 225.459 221.539C225.148 221.85 224.865 222.189 224.582 222.529C224.215 222.953 223.932 223.406 223.734 223.886C223.592 224.254 223.564 224.622 223.734 225.018C223.79 225.187 223.847 225.357 223.932 225.555C224.215 226.46 224.667 227.252 225.318 227.959C225.798 228.497 226.279 228.978 226.788 229.487C227.298 229.996 227.891 230.363 228.57 230.646C228.825 230.731 229.108 230.731 229.362 230.646C229.9 230.448 230.381 230.194 230.805 229.826C231.37 229.317 231.88 228.751 232.417 228.214C232.558 228.072 232.587 227.931 232.587 227.761C232.502 227.394 232.36 227.082 232.106 226.828C231.201 225.979 230.296 225.074 229.391 224.169Z" fill="#FFEDE3"/>
</g>
<g filter="url(#filter23_d_28_104)">
<path d="M184.564 246.049C185.347 245.638 186.252 245.523 187.181 245.571C187.664 245.588 188.116 245.53 188.584 245.509C189.015 245.504 189.347 245.366 189.702 245.176C189.849 245.115 190.019 245.002 190.099 244.882C190.297 244.627 190.457 244.387 190.618 244.148C191.133 243.198 192.584 242.727 193.472 243.095C193.943 243.29 194.361 243.463 194.779 243.636C194.988 243.723 195.123 243.84 195.236 244.009C195.697 244.598 195.957 245.226 195.795 245.986C195.696 246.374 195.56 246.776 195.408 247.142C195.374 247.373 195.272 247.545 195.238 247.776C195.027 248.729 194.358 249.309 193.501 249.75C192.571 250.222 191.555 250.383 190.546 250.455C189.9 250.463 189.247 250.56 188.601 250.568C187.74 250.578 187.099 251.017 186.519 251.604C186.189 251.957 185.874 252.347 185.492 252.678C184.993 253.145 184.334 253.331 183.642 253.228C183.128 253.138 182.658 252.943 182.187 252.748C182.046 252.72 181.941 252.677 181.858 252.582C181.331 251.934 180.914 251.241 181.118 250.377C181.302 249.565 181.574 248.759 182.04 248.003C182.617 247.202 183.308 246.569 184.195 246.202C184.306 246.156 184.38 246.125 184.564 246.049Z" fill="#FFEDE3"/>
</g>
<g clip-path="url(#clip0_28_104)">
<path fill-rule="evenodd" clip-rule="evenodd" d="M163.393 98.3954C165.077 98.9417 166.22 100.505 166.228 102.276C166.262 103.053 166.265 103.685 166.265 103.685C166.265 103.685 166.238 125.248 140.707 145.097C130.321 153.171 121.313 166.297 118.961 178.569C118.652 180.21 117.381 181.503 115.745 181.839C114.109 182.176 112.432 181.49 111.499 180.102C104.223 169.32 95.972 149.169 109.731 125.308C122.138 103.793 145.046 92.7911 163.393 98.3954Z" fill="#FFEDE3"/>
<path fill-rule="evenodd" clip-rule="evenodd" d="M127.433 193.367C125.673 192.804 124.474 191.172 124.467 189.324C124.432 188.605 124.428 188.038 124.428 188.038C124.428 188.038 124.455 166.475 149.986 146.626C160.278 138.624 169.217 125.661 171.667 113.487C172.006 111.79 173.335 110.462 175.034 110.131C176.734 109.797 178.466 110.522 179.42 111.966C186.642 122.829 194.575 142.805 180.961 166.415C168.583 187.875 145.759 198.877 127.433 193.367Z" fill="#FFEDE3"/>
</g>
<defs>
<filter id="filter0_d_28_104" x="136.38" y="242.44" width="19.36" height="32.36" filterUnits="userSpaceOnUse" color-interpolation-filters="sRGB">
<feFlood flood-opacity="0" result="BackgroundImageFix"/>
<feColorMatrix in="SourceAlpha" type="matrix" values="0 0 0 0 0 0 0 0 0 0 0 0 0 0 0 0 0 0 127 0" result="hardAlpha"/>
<feOffset dx="1" dy="3"/>
<feGaussianBlur stdDeviation="0.5"/>
<feComposite in2="hardAlpha" operator="out"/>
<feColorMatrix type="matrix" values="0 0 0 0 0.988782 0 0 0 0 0.926983 0 0 0 0 0.926983 0 0 0 0.25 0"/>
<feBlend mode="normal" in2="BackgroundImageFix" result="effect1_dropShadow_28_104"/>
<feBlend mode="normal" in="SourceGraphic" in2="effect1_dropShadow_28_104" result="shape"/>
</filter>
<filter id="filter1_d_28_104" x="112.129" y="238.642" width="24.2766" height="35.2963" filterUnits="userSpaceOnUse" color-interpolation-filters="sRGB">
<feFlood flood-opacity="0" result="BackgroundImageFix"/>
<feColorMatrix in="SourceAlpha" type="matrix" values="0 0 0 0 0 0 0 0 0 0 0 0 0 0 0 0 0 0 127 0" result="hardAlpha"/>
<feOffset dx="1" dy="3"/>
<feGaussianBlur stdDeviation="0.5"/>
<feComposite in2="hardAlpha" operator="out"/>
<feColorMatrix type="matrix" values="0 0 0 0 0.988782 0 0 0 0 0.926983 0 0 0 0 0.926983 0 0 0 0.25 0"/>
<feBlend mode="normal" in2="BackgroundImageFix" result="effect1_dropShadow_28_104"/>
<feBlend mode="normal" in="SourceGraphic" in2="effect1_dropShadow_28_104" result="shape"/>
</filter>
<filter id="filter2_d_28_104" x="89.677" y="231.899" width="29.0023" height="36.8905" filterUnits="userSpaceOnUse" color-interpolation-filters="sRGB">
<feFlood flood-opacity="0" result="BackgroundImageFix"/>
<feColorMatrix in="SourceAlpha" type="matrix" values="0 0 0 0 0 0 0 0 0 0 0 0 0 0 0 0 0 0 127 0" result="hardAlpha"/>
<feOffset dx="1" dy="3"/>
<feGaussianBlur stdDeviation="0.5"/>
<feComposite in2="hardAlpha" operator="out"/>
<feColorMatrix type="matrix" values="0 0 0 0 0.988782 0 0 0 0 0.926983 0 0 0 0 0.926983 0 0 0 0.25 0"/>
<feBlend mode="normal" in2="BackgroundImageFix" result="effect1_dropShadow_28_104"/>
<feBlend mode="normal" in="SourceGraphic" in2="effect1_dropShadow_28_104" result="shape"/>
</filter>
<filter id="filter3_d_28_104" x="68.6821" y="221.484" width="32.29" height="37.2919" filterUnits="userSpaceOnUse" color-interpolation-filters="sRGB">
<feFlood flood-opacity="0" result="BackgroundImageFix"/>
<feColorMatrix in="SourceAlpha" type="matrix" values="0 0 0 0 0 0 0 0 0 0 0 0 0 0 0 0 0 0 127 0" result="hardAlpha"/>
<feOffset dx="1" dy="3"/>
<feGaussianBlur stdDeviation="0.5"/>
<feComposite in2="hardAlpha" operator="out"/>
<feColorMatrix type="matrix" values="0 0 0 0 0.988782 0 0 0 0 0.926983 0 0 0 0 0.926983 0 0 0 0.25 0"/>
<feBlend mode="normal" in2="BackgroundImageFix" result="effect1_dropShadow_28_104"/>
<feBlend mode="normal" in="SourceGraphic" in2="effect1_dropShadow_28_104" result="shape"/>
</filter>
<filter id="filter4_d_28_104" x="49.2467" y="194.205" width="17.3491" height="21.1867" filterUnits="userSpaceOnUse" color-interpolation-filters="sRGB">
<feFlood flood-opacity="0" result="BackgroundImageFix"/>
<feColorMatrix in="SourceAlpha" type="matrix" values="0 0 0 0 0 0 0 0 0 0 0 0 0 0 0 0 0 0 127 0" result="hardAlpha"/>
<feOffset dx="1" dy="3"/>
<feGaussianBlur stdDeviation="0.5"/>
<feComposite in2="hardAlpha" operator="out"/>
<feColorMatrix type="matrix" values="0 0 0 0 1 0 0 0 0 0.929412 0 0 0 0 0.890196 0 0 0 0.25 0"/>
<feBlend mode="normal" in2="BackgroundImageFix" result="effect1_dropShadow_28_104"/>
<feBlend mode="normal" in="SourceGraphic" in2="effect1_dropShadow_28_104" result="shape"/>
</filter>
<filter id="filter5_d_28_104" x="40.1063" y="174.8" width="17.5356" height="24.9053" filterUnits="userSpaceOnUse" color-interpolation-filters="sRGB">
<feFlood flood-opacity="0" result="BackgroundImageFix"/>
<feColorMatrix in="SourceAlpha" type="matrix" values="0 0 0 0 0 0 0 0 0 0 0 0 0 0 0 0 0 0 127 0" result="hardAlpha"/>
<feOffset dx="1" dy="3"/>
<feGaussianBlur stdDeviation="0.5"/>
<feComposite in2="hardAlpha" operator="out"/>
<feColorMatrix type="matrix" values="0 0 0 0 1 0 0 0 0 0.929412 0 0 0 0 0.890196 0 0 0 0.25 0"/>
<feBlend mode="normal" in2="BackgroundImageFix" result="effect1_dropShadow_28_104"/>
<feBlend mode="normal" in="SourceGraphic" in2="effect1_dropShadow_28_104" result="shape"/>
</filter>
<filter id="filter6_d_28_104" x="20.8271" y="155.703" width="35.4721" height="25.1189" filterUnits="userSpaceOnUse" color-interpolation-filters="sRGB">
<feFlood flood-opacity="0" result="BackgroundImageFix"/>
<feColorMatrix in="SourceAlpha" type="matrix" values="0 0 0 0 0 0 0 0 0 0 0 0 0 0 0 0 0 0 127 0" result="hardAlpha"/>
<feOffset dx="1" dy="3"/>
<feGaussianBlur stdDeviation="0.5"/>
<feComposite in2="hardAlpha" operator="out"/>
<feColorMatrix type="matrix" values="0 0 0 0 1 0 0 0 0 0.929412 0 0 0 0 0.890196 0 0 0 0.25 0"/>
<feBlend mode="normal" in2="BackgroundImageFix" result="effect1_dropShadow_28_104"/>
<feBlend mode="normal" in="SourceGraphic" in2="effect1_dropShadow_28_104" result="shape"/>
</filter>
<filter id="filter7_d_28_104" x="20.3416" y="111.651" width="33.2018" height="26.5591" filterUnits="userSpaceOnUse" color-interpolation-filters="sRGB">
<feFlood flood-opacity="0" result="BackgroundImageFix"/>
<feColorMatrix in="SourceAlpha" type="matrix" values="0 0 0 0 0 0 0 0 0 0 0 0 0 0 0 0 0 0 127 0" result="hardAlpha"/>
<feOffset dx="1" dy="3"/>
<feGaussianBlur stdDeviation="0.5"/>
<feComposite in2="hardAlpha" operator="out"/>
<feColorMatrix type="matrix" values="0 0 0 0 0.988782 0 0 0 0 0.926983 0 0 0 0 0.926983 0 0 0 0.25 0"/>
<feBlend mode="normal" in2="BackgroundImageFix" result="effect1_dropShadow_28_104"/>
<feBlend mode="normal" in="SourceGraphic" in2="effect1_dropShadow_28_104" result="shape"/>
</filter>
<filter id="filter8_d_28_104" x="25.0345" y="87.4152" width="35.9706" height="32.7967" filterUnits="userSpaceOnUse" color-interpolation-filters="sRGB">
<feFlood flood-opacity="0" result="BackgroundImageFix"/>
<feColorMatrix in="SourceAlpha" type="matrix" values="0 0 0 0 0 0 0 0 0 0 0 0 0 0 0 0 0 0 127 0" result="hardAlpha"/>
<feOffset dx="1" dy="3"/>
<feGaussianBlur stdDeviation="0.5"/>
<feComposite in2="hardAlpha" operator="out"/>
<feColorMatrix type="matrix" values="0 0 0 0 0.988782 0 0 0 0 0.926983 0 0 0 0 0.926983 0 0 0 0.25 0"/>
<feBlend mode="normal" in2="BackgroundImageFix" result="effect1_dropShadow_28_104"/>
<feBlend mode="normal" in="SourceGraphic" in2="effect1_dropShadow_28_104" result="shape"/>
</filter>
<filter id="filter9_d_28_104" x="36.2527" y="67.7592" width="35.1805" height="34.0131" filterUnits="userSpaceOnUse" color-interpolation-filters="sRGB">
<feFlood flood-opacity="0" result="BackgroundImageFix"/>
<feColorMatrix in="SourceAlpha" type="matrix" values="0 0 0 0 0 0 0 0 0 0 0 0 0 0 0 0 0 0 127 0" result="hardAlpha"/>
<feOffset dx="1" dy="3"/>
<feGaussianBlur stdDeviation="0.5"/>
<feComposite in2="hardAlpha" operator="out"/>
<feColorMatrix type="matrix" values="0 0 0 0 0.988782 0 0 0 0 0.926983 0 0 0 0 0.926983 0 0 0 0.25 0"/>
<feBlend mode="normal" in2="BackgroundImageFix" result="effect1_dropShadow_28_104"/>
<feBlend mode="normal" in="SourceGraphic" in2="effect1_dropShadow_28_104" result="shape"/>
</filter>
<filter id="filter10_d_28_104" x="49.8165" y="50.2745" width="34.4138" height="36.4138" filterUnits="userSpaceOnUse" color-interpolation-filters="sRGB">
<feFlood flood-opacity="0" result="BackgroundImageFix"/>
<feColorMatrix in="SourceAlpha" type="matrix" values="0 0 0 0 0 0 0 0 0 0 0 0 0 0 0 0 0 0 127 0" result="hardAlpha"/>
<feOffset dx="1" dy="3"/>
<feGaussianBlur stdDeviation="0.5"/>
<feComposite in2="hardAlpha" operator="out"/>
<feColorMatrix type="matrix" values="0 0 0 0 0.988782 0 0 0 0 0.926983 0 0 0 0 0.926983 0 0 0 0.25 0"/>
<feBlend mode="normal" in2="BackgroundImageFix" result="effect1_dropShadow_28_104"/>
<feBlend mode="normal" in="SourceGraphic" in2="effect1_dropShadow_28_104" result="shape"/>
</filter>
<filter id="filter11_d_28_104" x="93.4913" y="35.5068" width="19.6609" height="16.7036" filterUnits="userSpaceOnUse" color-interpolation-filters="sRGB">
<feFlood flood-opacity="0" result="BackgroundImageFix"/>
<feColorMatrix in="SourceAlpha" type="matrix" values="0 0 0 0 0 0 0 0 0 0 0 0 0 0 0 0 0 0 127 0" result="hardAlpha"/>
<feOffset dx="1" dy="3"/>
<feGaussianBlur stdDeviation="0.5"/>
<feComposite in2="hardAlpha" operator="out"/>
<feColorMatrix type="matrix" values="0 0 0 0 0.988782 0 0 0 0 0.926983 0 0 0 0 0.926983 0 0 0 0.25 0"/>
<feBlend mode="normal" in2="BackgroundImageFix" result="effect1_dropShadow_28_104"/>
<feBlend mode="normal" in="SourceGraphic" in2="effect1_dropShadow_28_104" result="shape"/>
</filter>
<filter id="filter12_d_28_104" x="136.353" y="20.2" width="19.36" height="32.36" filterUnits="userSpaceOnUse" color-interpolation-filters="sRGB">
<feFlood flood-opacity="0" result="BackgroundImageFix"/>
<feColorMatrix in="SourceAlpha" type="matrix" values="0 0 0 0 0 0 0 0 0 0 0 0 0 0 0 0 0 0 127 0" result="hardAlpha"/>
<feOffset dx="1" dy="3"/>
<feGaussianBlur stdDeviation="0.5"/>
<feComposite in2="hardAlpha" operator="out"/>
<feColorMatrix type="matrix" values="0 0 0 0 0.988782 0 0 0 0 0.926983 0 0 0 0 0.926983 0 0 0 0.25 0"/>
<feBlend mode="normal" in2="BackgroundImageFix" result="effect1_dropShadow_28_104"/>
<feBlend mode="normal" in="SourceGraphic" in2="effect1_dropShadow_28_104" result="shape"/>
</filter>
<filter id="filter13_d_28_104" x="155.688" y="20.0619" width="24.2766" height="35.2963" filterUnits="userSpaceOnUse" color-interpolation-filters="sRGB">
<feFlood flood-opacity="0" result="BackgroundImageFix"/>
<feColorMatrix in="SourceAlpha" type="matrix" values="0 0 0 0 0 0 0 0 0 0 0 0 0 0 0 0 0 0 127 0" result="hardAlpha"/>
<feOffset dx="1" dy="3"/>
<feGaussianBlur stdDeviation="0.5"/>
<feComposite in2="hardAlpha" operator="out"/>
<feColorMatrix type="matrix" values="0 0 0 0 0.988782 0 0 0 0 0.926983 0 0 0 0 0.926983 0 0 0 0.25 0"/>
<feBlend mode="normal" in2="BackgroundImageFix" result="effect1_dropShadow_28_104"/>
<feBlend mode="normal" in="SourceGraphic" in2="effect1_dropShadow_28_104" result="shape"/>
</filter>
<filter id="filter14_d_28_104" x="173.413" y="25.2101" width="29.0023" height="36.8906" filterUnits="userSpaceOnUse" color-interpolation-filters="sRGB">
<feFlood flood-opacity="0" result="BackgroundImageFix"/>
<feColorMatrix in="SourceAlpha" type="matrix" values="0 0 0 0 0 0 0 0 0 0 0 0 0 0 0 0 0 0 127 0" result="hardAlpha"/>
<feOffset dx="1" dy="3"/>
<feGaussianBlur stdDeviation="0.5"/>
<feComposite in2="hardAlpha" operator="out"/>
<feColorMatrix type="matrix" values="0 0 0 0 0.988782 0 0 0 0 0.926983 0 0 0 0 0.926983 0 0 0 0.25 0"/>
<feBlend mode="normal" in2="BackgroundImageFix" result="effect1_dropShadow_28_104"/>
<feBlend mode="normal" in="SourceGraphic" in2="effect1_dropShadow_28_104" result="shape"/>
</filter>
<filter id="filter15_d_28_104" x="191.12" y="35.2244" width="32.29" height="37.2919" filterUnits="userSpaceOnUse" color-interpolation-filters="sRGB">
<feFlood flood-opacity="0" result="BackgroundImageFix"/>
<feColorMatrix in="SourceAlpha" type="matrix" values="0 0 0 0 0 0 0 0 0 0 0 0 0 0 0 0 0 0 127 0" result="hardAlpha"/>
<feOffset dx="1" dy="3"/>
<feGaussianBlur stdDeviation="0.5"/>
<feComposite in2="hardAlpha" operator="out"/>
<feColorMatrix type="matrix" values="0 0 0 0 0.988782 0 0 0 0 0.926983 0 0 0 0 0.926983 0 0 0 0.25 0"/>
<feBlend mode="normal" in2="BackgroundImageFix" result="effect1_dropShadow_28_104"/>
<feBlend mode="normal" in="SourceGraphic" in2="effect1_dropShadow_28_104" result="shape"/>
</filter>
<filter id="filter16_d_28_104" x="225.497" y="78.6085" width="17.3491" height="21.1867" filterUnits="userSpaceOnUse" color-interpolation-filters="sRGB">
<feFlood flood-opacity="0" result="BackgroundImageFix"/>
<feColorMatrix in="SourceAlpha" type="matrix" values="0 0 0 0 0 0 0 0 0 0 0 0 0 0 0 0 0 0 127 0" result="hardAlpha"/>
<feOffset dx="1" dy="3"/>
<feGaussianBlur stdDeviation="0.5"/>
<feComposite in2="hardAlpha" operator="out"/>
<feColorMatrix type="matrix" values="0 0 0 0 1 0 0 0 0 0.929412 0 0 0 0 0.890196 0 0 0 0.25 0"/>
<feBlend mode="normal" in2="BackgroundImageFix" result="effect1_dropShadow_28_104"/>
<feBlend mode="normal" in="SourceGraphic" in2="effect1_dropShadow_28_104" result="shape"/>
</filter>
<filter id="filter17_d_28_104" x="234.451" y="94.2945" width="17.5355" height="24.9053" filterUnits="userSpaceOnUse" color-interpolation-filters="sRGB">
<feFlood flood-opacity="0" result="BackgroundImageFix"/>
<feColorMatrix in="SourceAlpha" type="matrix" values="0 0 0 0 0 0 0 0 0 0 0 0 0 0 0 0 0 0 127 0" result="hardAlpha"/>
<feOffset dx="1" dy="3"/>
<feGaussianBlur stdDeviation="0.5"/>
<feComposite in2="hardAlpha" operator="out"/>
<feColorMatrix type="matrix" values="0 0 0 0 1 0 0 0 0 0.929412 0 0 0 0 0.890196 0 0 0 0.25 0"/>
<feBlend mode="normal" in2="BackgroundImageFix" result="effect1_dropShadow_28_104"/>
<feBlend mode="normal" in="SourceGraphic" in2="effect1_dropShadow_28_104" result="shape"/>
</filter>
<filter id="filter18_d_28_104" x="235.793" y="113.178" width="35.472" height="25.1189" filterUnits="userSpaceOnUse" color-interpolation-filters="sRGB">
<feFlood flood-opacity="0" result="BackgroundImageFix"/>
<feColorMatrix in="SourceAlpha" type="matrix" values="0 0 0 0 0 0 0 0 0 0 0 0 0 0 0 0 0 0 127 0" result="hardAlpha"/>
<feOffset dx="1" dy="3"/>
<feGaussianBlur stdDeviation="0.5"/>
<feComposite in2="hardAlpha" operator="out"/>
<feColorMatrix type="matrix" values="0 0 0 0 1 0 0 0 0 0.929412 0 0 0 0 0.890196 0 0 0 0.25 0"/>
<feBlend mode="normal" in2="BackgroundImageFix" result="effect1_dropShadow_28_104"/>
<feBlend mode="normal" in="SourceGraphic" in2="effect1_dropShadow_28_104" result="shape"/>
</filter>
<filter id="filter19_d_28_104" x="239.175" y="155.79" width="33.2018" height="26.5591" filterUnits="userSpaceOnUse" color-interpolation-filters="sRGB">
<feFlood flood-opacity="0" result="BackgroundImageFix"/>
<feColorMatrix in="SourceAlpha" type="matrix" values="0 0 0 0 0 0 0 0 0 0 0 0 0 0 0 0 0 0 127 0" result="hardAlpha"/>
<feOffset dx="1" dy="3"/>
<feGaussianBlur stdDeviation="0.5"/>
<feComposite in2="hardAlpha" operator="out"/>
<feColorMatrix type="matrix" values="0 0 0 0 0.988782 0 0 0 0 0.926983 0 0 0 0 0.926983 0 0 0 0.25 0"/>
<feBlend mode="normal" in2="BackgroundImageFix" result="effect1_dropShadow_28_104"/>
<feBlend mode="normal" in="SourceGraphic" in2="effect1_dropShadow_28_104" result="shape"/>
</filter>
<filter id="filter20_d_28_104" x="231.714" y="173.788" width="35.9705" height="32.7967" filterUnits="userSpaceOnUse" color-interpolation-filters="sRGB">
<feFlood flood-opacity="0" result="BackgroundImageFix"/>
<feColorMatrix in="SourceAlpha" type="matrix" values="0 0 0 0 0 0 0 0 0 0 0 0 0 0 0 0 0 0 127 0" result="hardAlpha"/>
<feOffset dx="1" dy="3"/>
<feGaussianBlur stdDeviation="0.5"/>
<feComposite in2="hardAlpha" operator="out"/>
<feColorMatrix type="matrix" values="0 0 0 0 0.988782 0 0 0 0 0.926983 0 0 0 0 0.926983 0 0 0 0.25 0"/>
<feBlend mode="normal" in2="BackgroundImageFix" result="effect1_dropShadow_28_104"/>
<feBlend mode="normal" in="SourceGraphic" in2="effect1_dropShadow_28_104" result="shape"/>
</filter>
<filter id="filter21_d_28_104" x="221.286" y="192.228" width="35.1804" height="34.0131" filterUnits="userSpaceOnUse" color-interpolation-filters="sRGB">
<feFlood flood-opacity="0" result="BackgroundImageFix"/>
<feColorMatrix in="SourceAlpha" type="matrix" values="0 0 0 0 0 0 0 0 0 0 0 0 0 0 0 0 0 0 127 0" result="hardAlpha"/>
<feOffset dx="1" dy="3"/>
<feGaussianBlur stdDeviation="0.5"/>
<feComposite in2="hardAlpha" operator="out"/>
<feColorMatrix type="matrix" values="0 0 0 0 0.988782 0 0 0 0 0.926983 0 0 0 0 0.926983 0 0 0 0.25 0"/>
<feBlend mode="normal" in2="BackgroundImageFix" result="effect1_dropShadow_28_104"/>
<feBlend mode="normal" in="SourceGraphic" in2="effect1_dropShadow_28_104" result="shape"/>
</filter>
<filter id="filter22_d_28_104" x="208.489" y="207.312" width="34.4137" height="36.4138" filterUnits="userSpaceOnUse" color-interpolation-filters="sRGB">
<feFlood flood-opacity="0" result="BackgroundImageFix"/>
<feColorMatrix in="SourceAlpha" type="matrix" values="0 0 0 0 0 0 0 0 0 0 0 0 0 0 0 0 0 0 127 0" result="hardAlpha"/>
<feOffset dx="1" dy="3"/>
<feGaussianBlur stdDeviation="0.5"/>
<feComposite in2="hardAlpha" operator="out"/>
<feColorMatrix type="matrix" values="0 0 0 0 0.988782 0 0 0 0 0.926983 0 0 0 0 0.926983 0 0 0 0.25 0"/>
<feBlend mode="normal" in2="BackgroundImageFix" result="effect1_dropShadow_28_104"/>
<feBlend mode="normal" in="SourceGraphic" in2="effect1_dropShadow_28_104" result="shape"/>
</filter>
<filter id="filter23_d_28_104" x="179.567" y="241.79" width="19.6609" height="16.7036" filterUnits="userSpaceOnUse" color-interpolation-filters="sRGB">
<feFlood flood-opacity="0" result="BackgroundImageFix"/>
<feColorMatrix in="SourceAlpha" type="matrix" values="0 0 0 0 0 0 0 0 0 0 0 0 0 0 0 0 0 0 127 0" result="hardAlpha"/>
<feOffset dx="1" dy="3"/>
<feGaussianBlur stdDeviation="0.5"/>
<feComposite in2="hardAlpha" operator="out"/>
<feColorMatrix type="matrix" values="0 0 0 0 0.988782 0 0 0 0 0.926983 0 0 0 0 0.926983 0 0 0 0.25 0"/>
<feBlend mode="normal" in2="BackgroundImageFix" result="effect1_dropShadow_28_104"/>
<feBlend mode="normal" in="SourceGraphic" in2="effect1_dropShadow_28_104" result="shape"/>
</filter>
<clipPath id="clip0_28_104">
<rect width="135" height="135" fill="white" transform="translate(77 79)"/>
</clipPath>
</defs>
</svg>
