<svg width="499" height="499" viewBox="0 0 499 499" fill="none" xmlns="http://www.w3.org/2000/svg">
<path d="M201.679 457.417C239.582 458.79 276.815 447.169 307.207 424.48C337.599 401.791 359.325 369.396 368.782 332.667H395.042C404.29 332.656 413.42 330.592 421.773 326.625C430.127 322.657 437.496 316.885 443.348 309.724C449.2 302.563 453.389 294.192 455.613 285.216C457.838 276.24 458.042 266.881 456.211 257.817C452.958 243.453 444.855 230.649 433.267 221.56C421.679 212.472 407.313 207.653 392.588 207.917H62.3749C56.8606 207.917 51.5722 210.107 47.673 214.006C43.7738 217.906 41.5833 223.194 41.5833 228.708V284.846C40.9674 328.676 57.2569 371.059 87.0693 403.195C116.882 435.33 157.926 454.748 201.679 457.417ZM374.25 249.5H395.042C400.556 249.5 405.844 251.691 409.744 255.59C413.643 259.489 415.833 264.777 415.833 270.292C415.833 275.806 413.643 281.094 409.744 284.994C405.844 288.893 400.556 291.083 395.042 291.083H374.25V249.5ZM139.45 77.0747L123.856 92.6685C131.687 101.551 136.134 112.912 136.414 124.75C136.437 130.373 135.346 135.945 133.205 141.144C131.064 146.343 127.915 151.067 123.939 155.043L97.9495 181.033C94.0509 184.943 88.7588 187.143 83.2376 187.151C77.7163 187.159 72.4181 184.973 68.5085 181.075C64.5988 177.176 62.398 171.884 62.3902 166.363C62.3824 160.842 64.5683 155.543 68.4669 151.634L94.4565 125.644C86.6558 116.749 82.2388 105.39 81.9815 93.5625C81.9588 87.9397 83.0495 82.368 85.1906 77.1687C87.3316 71.9694 90.4808 67.2454 94.4565 63.2691L110.05 47.6753C113.972 43.888 119.224 41.7923 124.675 41.8397C130.127 41.887 135.341 44.0737 139.196 47.9286C143.051 51.7835 145.238 56.9984 145.285 62.4499C145.333 67.9014 143.237 73.1534 139.45 77.0747ZM243.408 77.0747L227.814 92.6685C235.645 101.551 240.092 112.912 240.372 124.75C240.395 130.373 239.304 135.945 237.163 141.144C235.022 146.343 231.873 151.067 227.897 155.043L201.908 181.033C198.009 184.943 192.717 187.143 187.196 187.151C181.675 187.159 176.376 184.973 172.467 181.075C168.557 177.176 166.356 171.884 166.349 166.363C166.341 160.842 168.527 155.543 172.425 151.634L198.415 125.644C190.614 116.749 186.197 105.39 185.94 93.5625C185.917 87.9397 187.008 82.368 189.149 77.1687C191.29 71.9694 194.439 67.2454 198.415 63.2691L214.009 47.6753C215.927 45.6895 218.221 44.1056 220.757 43.0159C223.294 41.9262 226.022 41.3527 228.783 41.3287C231.544 41.3047 234.282 41.8307 236.837 42.8762C239.392 43.9216 241.714 45.4654 243.666 47.4176C245.618 49.3698 247.162 51.6912 248.207 54.2465C249.253 56.8017 249.779 59.5395 249.755 62.3002C249.731 65.0609 249.157 67.7892 248.067 70.3259C246.978 72.8625 245.394 75.1568 243.408 77.0747ZM347.366 77.0747L331.773 92.6685C339.603 101.551 344.05 112.912 344.331 124.75C344.353 130.373 343.263 135.945 341.122 141.144C338.981 146.343 335.831 151.067 331.856 155.043L305.866 181.033C301.945 184.82 296.693 186.916 291.241 186.869C285.79 186.821 280.575 184.635 276.72 180.78C272.865 176.925 270.678 171.71 270.631 166.259C270.584 160.807 272.679 155.555 276.467 151.634L302.456 125.644C294.656 116.749 290.239 105.39 289.981 93.5625C289.959 87.9397 291.049 82.368 293.19 77.1687C295.332 71.9694 298.481 67.2454 302.456 63.2691L318.05 47.6753C319.968 45.6895 322.262 44.1056 324.799 43.0159C327.336 41.9262 330.064 41.3527 332.825 41.3287C335.585 41.3047 338.323 41.8307 340.878 42.8762C343.434 43.9216 345.755 45.4654 347.707 47.4176C349.659 49.3698 351.203 51.6912 352.249 54.2465C353.294 56.8017 353.82 59.5395 353.796 62.3002C353.772 65.0609 353.199 67.7892 352.109 70.3259C351.019 72.8625 349.435 75.1568 347.449 77.0747H347.366Z" fill="#49261D"/>
</svg>
