<svg width="482" height="482" viewBox="0 0 482 482" fill="none" xmlns="http://www.w3.org/2000/svg">
<path d="M99.2118 61.6559C100.618 69.2875 102.023 74.5092 102.023 74.9109C125.32 170.106 156.449 193.403 183.963 213.888C192.156 219.838 199.755 226.563 206.658 233.971C205.202 236.038 203.862 238.184 202.641 240.398C185.839 268.882 177.416 301.53 178.34 334.588C139.884 318.116 107.964 289.374 87.5634 252.849C46.5935 180.75 52.6185 100.417 99.2118 61.6559ZM136.366 42.9784C138.575 55.2292 140.583 65.2709 140.583 65.4717C160.667 145.805 183.16 163.679 207.26 181.754C215.762 187.784 223.755 194.501 231.159 201.838C251.806 179.545 279.298 164.774 309.283 159.863C305.383 150.253 300.82 140.925 295.627 131.948C276.507 97.0809 247.034 69.0109 211.277 51.6142C187.994 40.3733 161.596 37.3301 136.366 42.9784Z" fill="#FF69B4"/>
<path d="M346.237 153.838C275.343 221.519 270.723 260.079 265.903 294.422C262.489 322.94 259.477 347.442 205.653 396.043C202.239 399.056 194.005 405.884 185.57 412.11C147.613 371.943 145.403 296.028 183.16 230.155C223.327 159.462 297.635 123.914 354.069 145.002C351.324 147.825 348.71 150.774 346.237 153.838ZM222.523 435.005C233.783 439.421 245.776 441.67 257.87 441.632C275.869 441.368 293.604 437.259 309.886 429.582C345.643 412.186 375.117 384.116 394.236 349.249C414.69 315.677 424.297 276.615 421.75 237.385C420.053 211.392 409.572 186.748 392.027 167.495C382.387 175.528 374.956 182.758 374.755 182.758C314.505 240.598 310.89 268.715 307.476 298.84C303.459 332.178 299.242 366.722 234.975 425.365C233.77 425.767 228.95 429.984 222.523 435.206V435.005Z" fill="#49261D"/>
</svg>
