<svg width="404" height="404" viewBox="0 0 404 404" fill="none" xmlns="http://www.w3.org/2000/svg">
<g clip-path="url(#clip0_101_12)">
<path d="M224.179 63.4354C243.81 60.0277 260.004 56.3579 276.401 54.5521C304.362 51.4648 328.827 59.0665 349.215 79.8039C386.001 117.667 395.525 161.355 380.525 211.218C372.253 238.684 351.574 255.693 328.419 269.469C304.129 284.032 278.527 296.323 253.771 310.245C219.694 329.235 190.976 353.933 171.025 388.185C167.093 394.913 159.695 399.631 155.064 404.116C143.414 403.301 136.715 399.952 134.677 390.049C133.424 384.399 131.181 378.952 129.725 373.331C123.288 348.895 111.58 326.963 98.3861 305.614C78.639 273.751 57.2609 242.907 40.1351 209.5C25.8502 181.87 17.9005 151.404 16.8638 120.317C15.7861 85.1047 27.3198 53.3288 54.0279 27.9896C84.668 -1.13589 151.598 -14.8249 196.743 23.6499C205.976 31.5138 212.063 43.1349 219.228 53.2414C221.197 56.4752 222.855 59.8884 224.179 63.4354ZM155.123 344.846C157.375 343.696 159.462 342.246 161.326 340.535C187.714 308.264 221.267 285.721 258.314 267.372C280.654 256.305 302.498 244.072 323.672 230.791C356.642 210.403 363.137 181.481 355.273 146.123C352.482 135.653 348.122 125.667 342.341 116.502C331.565 97.9782 314.993 88.0173 293.44 86.1533C271.333 84.2601 250.421 87.0562 230.645 98.1238C219.607 104.269 209.325 99.9588 204.053 88.5998C202.659 85.5704 201.604 82.3958 200.908 79.134C196.51 59.0083 182.297 48.3775 164.559 41.067C149.027 34.6819 132.021 32.7554 115.454 35.504C107.24 36.6758 99.3906 39.6605 92.4736 44.2417C66.6975 62.5907 51.2028 87.5222 49.6882 119.648C48.1588 148.177 54.9699 176.535 69.2897 201.257C79.2506 218.733 89.6776 235.655 100.425 252.518C118.366 280.624 137.21 308.119 150.23 339.05C151.585 341.199 153.231 343.15 155.123 344.846Z" fill="#FF2D65"/>
<path d="M155.122 344.846C153.26 343.135 151.643 341.175 150.317 339.021C137.298 308.09 118.453 280.595 100.512 252.489C89.6774 235.655 79.3379 218.587 69.2896 201.257C54.9504 176.561 48.1092 148.224 49.6007 119.706C51.1153 87.6678 66.61 62.649 92.3861 44.2999C99.3031 39.7188 107.153 36.7341 115.366 35.5623C131.956 32.7787 148.994 34.6852 164.559 41.067C182.297 48.3775 196.597 59.0083 200.908 79.134C201.603 82.3958 202.658 85.5704 204.053 88.5998C209.325 99.9588 219.606 104.269 230.645 98.1239C250.421 87.0562 271.421 84.2601 293.44 86.1533C314.992 88.0173 331.565 97.9782 342.341 116.502C348.122 125.667 352.481 135.653 355.273 146.123C363.137 181.481 356.642 210.199 323.672 230.791C302.498 243.984 280.653 256.305 258.314 267.372C221.267 285.721 187.714 308.148 161.326 340.536C159.462 342.246 157.375 343.696 155.122 344.846Z" fill="#FF2D65"/>
</g>
<defs>
<clipPath id="clip0_101_12">
<rect width="404" height="404" fill="white"/>
</clipPath>
</defs>
</svg>
