<svg width="278" height="197" viewBox="0 0 278 197" fill="none" xmlns="http://www.w3.org/2000/svg">
<path d="M16.704 27.472C19.488 27.472 22.176 27.568 24.768 27.568C26.88 27.664 28.992 27.76 31.008 27.856C31.2 27.856 31.392 27.856 31.584 27.856C34.368 28.432 37.056 29.2 39.168 31.312C40.512 32.56 41.664 34 42.336 35.632C42.912 37.072 43.392 38.416 43.968 39.76C44.064 40.144 44.16 40.528 44.256 40.912C44.64 42.928 45.12 44.944 45.216 46.96C45.312 49.168 45.504 51.376 45.504 53.488C45.504 57.808 44.448 61.936 42.336 65.68C41.472 67.216 40.416 68.752 39.072 69.904C38.208 70.672 37.248 71.344 36.192 71.728C34.944 72.208 33.888 72.784 32.736 73.36C31.968 73.84 31.104 74.224 30.144 74.512C28.416 74.896 26.592 75.184 24.768 75.472C24.288 75.568 23.808 75.568 23.328 75.568C22.176 75.664 21.024 75.856 19.968 75.952C19.488 75.952 19.296 76.24 19.2 76.624C18.528 77.68 18.336 78.928 18.336 80.08C18.24 81.232 18.336 82.48 18.24 83.632C18.24 85.36 18.24 87.088 18.144 88.912C17.952 90.256 17.856 91.792 17.184 93.04C16.896 93.52 16.608 93.904 16.128 94.192C14.496 94.96 12.768 95.344 11.04 95.248C10.656 95.248 10.368 95.152 10.08 95.056C9.024 94.864 8.064 94.48 7.104 94.192C6.24 94 5.76 93.424 5.28 92.848C4.704 91.984 4.224 91.12 4.32 90.064C4.8 83.44 4.608 76.816 4.608 70.192C4.608 63.76 4.608 57.232 4.608 50.704C4.608 46.768 4.416 42.832 4.032 38.8C3.84 36.592 4.032 34.288 4.416 32.08C4.512 31.696 4.608 31.216 4.704 30.736C4.992 28.816 6.432 27.472 8.352 27.376C10.368 27.28 12.288 27.472 14.208 27.472C15.072 27.472 15.936 27.472 16.704 27.472ZM18.624 56.272C18.624 57.712 18.624 59.056 18.624 60.4C18.624 60.88 18.72 61.264 18.816 61.744C19.008 62.896 19.2 63.088 20.448 63.184C21.6 63.376 22.752 63.472 23.904 63.28C25.152 63.088 26.4 62.8 27.552 62.32C28.416 61.936 29.088 61.36 29.472 60.4C29.664 60.016 29.856 59.632 30.048 59.152C31.104 57.136 31.68 55.024 31.776 52.72C31.872 50.992 31.968 49.36 31.872 47.632C31.872 45.904 31.584 44.272 30.816 42.64C30.528 42.064 30.048 41.584 29.472 41.296C28.32 40.72 27.072 40.336 25.728 40.24C23.904 40.144 22.08 40.24 20.256 40.24C19.68 40.24 19.296 40.528 19.008 41.008C18.912 41.296 18.72 41.584 18.72 41.968C18.624 42.928 18.432 43.888 18.432 44.944C18.432 48.688 18.528 52.528 18.624 56.272ZM92.7383 50.512C92.7383 54.832 92.7383 59.152 92.6423 63.472C92.6423 66.16 92.5463 68.752 92.3543 71.44C92.0663 75.472 91.5863 79.6 90.3383 83.536C89.5703 86.128 88.6103 88.72 86.6903 90.832C86.3063 91.216 85.8263 91.6 85.4423 91.984C85.1543 92.272 84.8663 92.464 84.6743 92.656C83.4263 94 81.7943 94.672 80.0663 95.248C79.2983 95.44 78.4343 95.632 77.5703 95.92C76.0343 96.304 74.4983 96.4 72.8663 96.496C71.3303 96.496 69.7943 96.304 68.3543 95.728C67.2023 95.248 65.8583 94.864 64.7063 94.48C62.8823 93.808 61.2503 92.752 59.8103 91.6C58.6583 90.64 57.8903 89.296 57.2183 88.048C56.8343 87.184 56.4503 86.224 55.9703 85.36C55.2023 83.92 54.7223 82.288 54.2422 80.752C53.7623 78.832 53.2823 76.912 52.9943 74.896C52.8023 73.84 52.7063 72.688 52.6103 71.632C52.5143 70.48 52.4183 69.328 52.3223 68.176C51.9383 65.008 51.7463 61.744 51.8423 58.48C52.0343 52.912 52.1303 47.344 52.3223 41.68C52.3223 40.432 52.4183 39.184 52.4183 37.936C52.4183 37.552 52.5143 37.168 52.6103 36.88C52.9943 35.152 53.3783 33.424 53.8583 31.696C54.1463 30.064 55.2023 28.816 56.6423 28.048C58.4663 27.088 61.1543 27.376 62.4023 28.816C62.9783 29.392 63.2663 30.064 63.5543 30.736C64.1303 32.272 64.3223 34 64.3223 35.728C64.5143 39.184 64.1303 42.64 64.0343 46.096C64.0343 46.672 64.0343 47.152 64.0343 47.728C64.0343 48.784 63.9383 49.84 63.8423 50.896C63.8423 51.664 63.7463 52.432 63.7463 53.2C63.7463 56.656 63.6503 60.112 63.7463 63.568C63.7463 66.352 63.8423 69.232 64.0343 72.016C64.1303 74.032 64.5143 76.048 65.2823 77.968C66.0503 79.888 67.2023 81.616 68.9303 82.96C69.2183 83.056 69.5063 83.248 69.7943 83.344C71.1383 83.728 72.4823 83.728 73.8263 83.248C74.5943 82.96 75.2663 82.48 75.7463 81.712C76.7063 80.368 77.3783 78.832 77.8583 77.2C79.0103 73.744 79.4903 70.288 79.6823 66.64C79.9703 60.88 80.0663 55.216 80.3543 49.456C80.5463 46.096 80.9303 42.832 81.2183 39.472C81.3143 37.84 81.4103 36.208 81.6023 34.576C81.7943 32.272 82.6583 30.256 84.0023 28.432C84.1943 28.24 84.3863 28.048 84.5783 28.048C85.5383 27.76 86.4983 27.376 87.5543 27.28C88.3223 27.184 89.1863 27.376 90.0503 27.664C90.8183 27.76 91.3943 28.336 91.8743 29.008C92.5463 30.256 93.0263 31.408 92.9303 32.848C92.8343 34.384 92.8343 35.824 92.8343 37.36C92.8343 41.776 92.8343 46.096 92.8343 50.512C92.8343 50.512 92.8343 50.512 92.7383 50.512ZM116.03 85.456C116.03 87.28 116.03 89.008 116.03 90.832C116.03 92.464 115.358 93.808 114.206 94.96C113.342 95.728 112.286 96.304 111.038 96.304C110.078 96.4 109.118 96.4 108.158 96.304C106.43 96.208 104.894 95.632 103.742 94.288C103.07 93.52 102.59 92.56 102.59 91.504C102.494 89.104 102.494 86.704 102.398 84.304C102.302 80.464 102.206 76.528 102.11 72.688C101.918 67.792 101.822 62.992 101.63 58.096C101.534 54.448 101.342 50.8 101.246 47.152C101.246 44.656 101.246 42.16 101.342 39.664C101.534 37.456 101.822 35.344 102.014 33.232C102.014 33.136 102.014 33.04 102.014 32.944C102.59 31.504 103.166 30.16 104.318 29.104C104.99 28.432 105.854 28.144 106.718 28.24C108.062 28.336 109.31 28.144 110.558 28.144C111.23 28.048 111.902 28.144 112.478 28.144C115.07 28.144 117.566 28.24 120.062 28.24C122.75 28.24 125.438 28.144 128.03 28.144C129.086 28.144 130.142 28.336 131.102 28.624C134.654 29.776 137.054 32.272 138.974 35.344C139.454 36.016 139.646 36.784 140.03 37.552C141.662 41.68 142.526 45.904 142.526 50.416C142.526 52.144 142.526 53.776 142.526 55.504C142.43 58.288 141.662 60.976 140.798 63.568C140.318 65.296 139.358 66.832 138.398 68.272C138.206 68.56 137.918 68.848 137.63 69.136C136.19 70.384 135.902 72.208 136.862 73.84C137.342 74.8 137.726 75.76 138.206 76.624C138.782 77.968 139.358 79.216 139.934 80.56C139.934 80.752 140.03 80.944 140.126 81.04C140.702 82.768 141.374 84.4 142.238 86.032C142.622 86.704 142.718 87.568 142.91 88.432C143.102 89.392 143.198 90.352 143.294 91.408C143.486 92.752 142.622 93.712 141.758 94.576C140.99 95.344 140.126 95.248 139.262 95.248C138.782 95.248 138.206 95.344 137.726 95.344C136.862 95.344 135.902 95.44 135.038 95.344C133.694 95.152 132.254 94.864 131.006 94.192C130.142 93.616 129.278 92.944 128.798 91.888C128.414 90.928 128.126 89.968 127.646 89.104C127.07 88.048 126.398 87.088 125.726 86.032C124.862 84.592 123.998 83.152 123.326 81.52C123.134 81.136 122.942 80.848 122.846 80.56C122.558 79.888 122.174 79.216 121.982 78.448C121.598 77.2 120.734 76.432 119.39 76.624C118.814 76.624 118.142 76.72 117.566 76.624C116.99 76.624 116.606 76.912 116.414 77.488C116.126 78.352 115.934 79.312 115.934 80.272C115.934 82 116.03 83.728 116.03 85.456ZM116.03 53.008C116.126 53.008 116.126 53.008 116.126 53.008C116.03 55.216 116.03 57.424 115.934 59.728C115.934 60.304 115.934 60.88 115.934 61.456C115.934 62.992 116.894 63.952 118.43 63.952C119.006 63.952 119.678 63.952 120.35 63.952C120.542 63.952 120.83 63.952 121.022 63.856C122.078 63.472 123.23 63.28 124.286 62.704C125.246 62.32 125.918 61.648 126.59 60.976C127.454 59.92 128.126 58.672 128.414 57.232C128.798 55.12 128.606 52.912 128.606 50.8C128.606 50.032 128.51 49.264 128.414 48.496C128.318 47.44 127.838 46.576 127.55 45.616C127.166 44.656 126.59 43.792 126.014 43.024C124.862 41.68 123.422 41.008 121.694 41.008C121.118 41.008 120.446 41.008 119.87 41.008C118.91 41.104 117.95 41.392 117.278 42.064C116.414 42.736 116.126 43.696 116.03 44.848C116.03 47.536 116.03 50.224 116.03 53.008ZM168.249 85.456C168.249 87.28 168.249 89.008 168.249 90.832C168.249 92.464 167.577 93.808 166.425 94.96C165.561 95.728 164.505 96.304 163.257 96.304C162.297 96.4 161.337 96.4 160.377 96.304C158.649 96.208 157.113 95.632 155.961 94.288C155.289 93.52 154.809 92.56 154.809 91.504C154.713 89.104 154.713 86.704 154.617 84.304C154.521 80.464 154.425 76.528 154.329 72.688C154.137 67.792 154.041 62.992 153.849 58.096C153.753 54.448 153.561 50.8 153.465 47.152C153.465 44.656 153.465 42.16 153.561 39.664C153.753 37.456 154.041 35.344 154.233 33.232C154.233 33.136 154.233 33.04 154.233 32.944C154.809 31.504 155.385 30.16 156.537 29.104C157.209 28.432 158.073 28.144 158.937 28.24C160.281 28.336 161.529 28.144 162.777 28.144C163.449 28.048 164.121 28.144 164.697 28.144C167.289 28.144 169.785 28.24 172.281 28.24C174.969 28.24 177.657 28.144 180.249 28.144C181.305 28.144 182.361 28.336 183.321 28.624C186.873 29.776 189.273 32.272 191.193 35.344C191.673 36.016 191.865 36.784 192.249 37.552C193.881 41.68 194.745 45.904 194.745 50.416C194.745 52.144 194.745 53.776 194.745 55.504C194.649 58.288 193.881 60.976 193.017 63.568C192.537 65.296 191.577 66.832 190.617 68.272C190.425 68.56 190.137 68.848 189.849 69.136C188.409 70.384 188.121 72.208 189.081 73.84C189.561 74.8 189.945 75.76 190.425 76.624C191.001 77.968 191.577 79.216 192.153 80.56C192.153 80.752 192.249 80.944 192.345 81.04C192.921 82.768 193.593 84.4 194.457 86.032C194.841 86.704 194.937 87.568 195.129 88.432C195.321 89.392 195.417 90.352 195.513 91.408C195.705 92.752 194.841 93.712 193.977 94.576C193.209 95.344 192.345 95.248 191.481 95.248C191.001 95.248 190.425 95.344 189.945 95.344C189.081 95.344 188.121 95.44 187.257 95.344C185.913 95.152 184.473 94.864 183.225 94.192C182.361 93.616 181.497 92.944 181.017 91.888C180.633 90.928 180.345 89.968 179.865 89.104C179.289 88.048 178.617 87.088 177.945 86.032C177.081 84.592 176.217 83.152 175.545 81.52C175.353 81.136 175.161 80.848 175.065 80.56C174.777 79.888 174.393 79.216 174.201 78.448C173.817 77.2 172.953 76.432 171.609 76.624C171.033 76.624 170.361 76.72 169.785 76.624C169.209 76.624 168.825 76.912 168.633 77.488C168.345 78.352 168.153 79.312 168.153 80.272C168.153 82 168.249 83.728 168.249 85.456ZM168.249 53.008C168.345 53.008 168.345 53.008 168.345 53.008C168.249 55.216 168.249 57.424 168.153 59.728C168.153 60.304 168.153 60.88 168.153 61.456C168.153 62.992 169.113 63.952 170.649 63.952C171.225 63.952 171.897 63.952 172.569 63.952C172.761 63.952 173.049 63.952 173.241 63.856C174.297 63.472 175.449 63.28 176.505 62.704C177.465 62.32 178.137 61.648 178.809 60.976C179.673 59.92 180.345 58.672 180.633 57.232C181.017 55.12 180.825 52.912 180.825 50.8C180.825 50.032 180.729 49.264 180.633 48.496C180.537 47.44 180.057 46.576 179.769 45.616C179.385 44.656 178.809 43.792 178.233 43.024C177.081 41.68 175.641 41.008 173.913 41.008C173.337 41.008 172.665 41.008 172.089 41.008C171.129 41.104 170.169 41.392 169.497 42.064C168.633 42.736 168.345 43.696 168.249 44.848C168.249 47.536 168.249 50.224 168.249 53.008Z" fill="#49261D"/>
<path d="M65.704 109.472C68.488 109.472 71.176 109.568 73.768 109.568C75.88 109.664 77.992 109.76 80.008 109.856C80.2 109.856 80.392 109.856 80.584 109.856C83.368 110.432 86.056 111.2 88.168 113.312C89.512 114.56 90.664 116 91.336 117.632C91.912 119.072 92.392 120.416 92.968 121.76C93.064 122.144 93.16 122.528 93.256 122.912C93.64 124.928 94.12 126.944 94.216 128.96C94.312 131.168 94.504 133.376 94.504 135.488C94.504 139.808 93.448 143.936 91.336 147.68C90.472 149.216 89.416 150.752 88.072 151.904C87.208 152.672 86.248 153.344 85.192 153.728C83.944 154.208 82.888 154.784 81.736 155.36C80.968 155.84 80.104 156.224 79.144 156.512C77.416 156.896 75.592 157.184 73.768 157.472C73.288 157.568 72.808 157.568 72.328 157.568C71.176 157.664 70.024 157.856 68.968 157.952C68.488 157.952 68.296 158.24 68.2 158.624C67.528 159.68 67.336 160.928 67.336 162.08C67.24 163.232 67.336 164.48 67.24 165.632C67.24 167.36 67.24 169.088 67.144 170.912C66.952 172.256 66.856 173.792 66.184 175.04C65.896 175.52 65.608 175.904 65.128 176.192C63.496 176.96 61.768 177.344 60.04 177.248C59.656 177.248 59.368 177.152 59.08 177.056C58.024 176.864 57.064 176.48 56.104 176.192C55.24 176 54.76 175.424 54.28 174.848C53.704 173.984 53.224 173.12 53.32 172.064C53.8 165.44 53.608 158.816 53.608 152.192C53.608 145.76 53.608 139.232 53.608 132.704C53.608 128.768 53.416 124.832 53.032 120.8C52.84 118.592 53.032 116.288 53.416 114.08C53.512 113.696 53.608 113.216 53.704 112.736C53.992 110.816 55.432 109.472 57.352 109.376C59.368 109.28 61.288 109.472 63.208 109.472C64.072 109.472 64.936 109.472 65.704 109.472ZM67.624 138.272C67.624 139.712 67.624 141.056 67.624 142.4C67.624 142.88 67.72 143.264 67.816 143.744C68.008 144.896 68.2 145.088 69.448 145.184C70.6 145.376 71.752 145.472 72.904 145.28C74.152 145.088 75.4 144.8 76.552 144.32C77.416 143.936 78.088 143.36 78.472 142.4C78.664 142.016 78.856 141.632 79.048 141.152C80.104 139.136 80.68 137.024 80.776 134.72C80.872 132.992 80.968 131.36 80.872 129.632C80.872 127.904 80.584 126.272 79.816 124.64C79.528 124.064 79.048 123.584 78.472 123.296C77.32 122.72 76.072 122.336 74.728 122.24C72.904 122.144 71.08 122.24 69.256 122.24C68.68 122.24 68.296 122.528 68.008 123.008C67.912 123.296 67.72 123.584 67.72 123.968C67.624 124.928 67.432 125.888 67.432 126.944C67.432 130.688 67.528 134.528 67.624 138.272ZM101.403 144.992C101.499 142.688 101.691 140.384 101.979 138.176C102.171 136.736 102.171 135.2 102.363 133.76C102.747 130.208 103.419 126.752 104.571 123.392C105.339 121.184 106.299 119.072 107.547 117.152C109.083 114.752 111.195 112.928 113.595 111.296C114.747 110.432 116.091 109.76 117.435 109.184C119.259 108.416 121.179 108.032 123.099 108.032C124.923 107.936 126.843 107.84 128.763 108.128C129.915 108.224 131.163 108.512 132.411 108.896H132.507C134.139 109.76 135.867 110.528 137.403 111.488C138.939 112.544 139.995 113.888 141.051 115.232C143.355 118.208 144.795 121.472 145.562 125.12C146.331 129.152 147.291 133.184 147.483 137.312C147.579 139.52 147.579 141.824 147.579 144.032C147.579 144.128 147.579 144.224 147.483 144.32C147.003 146.24 147.099 148.256 146.619 150.176C145.851 153.92 144.987 157.664 143.451 161.12C143.067 161.888 142.779 162.56 142.491 163.328C141.627 165.44 140.379 167.36 139.131 169.28C138.075 170.912 136.539 172.16 134.907 173.216C134.523 173.6 134.043 173.888 133.563 174.176C133.083 174.56 132.507 174.848 132.027 175.136C131.355 175.424 130.683 175.712 130.011 176C128.667 176.672 127.227 176.768 125.786 176.864C123.675 176.96 121.467 176.864 119.355 176.48C117.339 176.096 115.323 175.808 113.499 174.656C111.674 173.312 109.851 171.968 108.411 170.144C106.683 167.84 105.243 165.344 104.187 162.752C102.939 159.488 102.267 156.032 102.075 152.576C102.075 151.616 101.787 150.656 101.787 149.792C101.595 148.16 101.499 146.528 101.403 144.992ZM134.235 141.824C134.235 140.672 134.331 139.52 134.235 138.368C133.947 135.2 133.371 132.032 132.411 128.96C131.931 127.328 131.163 125.696 130.107 124.256C130.011 124.16 129.819 123.968 129.723 123.872C128.091 122.624 126.363 122.048 124.347 122.048C122.331 122.144 120.603 123.008 119.259 124.544C116.859 127.424 115.515 130.88 114.651 134.432C114.171 136.064 114.075 137.696 113.979 139.328C113.691 143.744 113.787 148.16 114.555 152.48C114.939 154.592 115.419 156.608 116.379 158.528C117.339 160.448 118.779 161.792 120.891 162.368C122.139 162.656 123.483 162.944 124.827 163.04C126.363 163.232 127.803 162.656 129.147 161.888C130.299 161.216 131.067 160.16 131.451 158.816C132.411 156.224 132.987 153.632 133.467 150.944C134.043 147.968 134.139 144.896 134.235 141.824ZM196.957 132.512C196.957 136.832 196.957 141.152 196.861 145.472C196.861 148.16 196.765 150.752 196.573 153.44C196.285 157.472 195.805 161.6 194.557 165.536C193.789 168.128 192.829 170.72 190.909 172.832C190.525 173.216 190.045 173.6 189.661 173.984C189.373 174.272 189.085 174.464 188.893 174.656C187.645 176 186.013 176.672 184.285 177.248C183.517 177.44 182.653 177.632 181.789 177.92C180.253 178.304 178.717 178.4 177.085 178.496C175.549 178.496 174.013 178.304 172.573 177.728C171.421 177.248 170.077 176.864 168.925 176.48C167.101 175.808 165.469 174.752 164.029 173.6C162.877 172.64 162.109 171.296 161.437 170.048C161.053 169.184 160.669 168.224 160.189 167.36C159.421 165.92 158.941 164.288 158.461 162.752C157.981 160.832 157.501 158.912 157.213 156.896C157.021 155.84 156.925 154.688 156.829 153.632C156.733 152.48 156.637 151.328 156.541 150.176C156.157 147.008 155.965 143.744 156.061 140.48C156.253 134.912 156.349 129.344 156.541 123.68C156.541 122.432 156.637 121.184 156.637 119.936C156.637 119.552 156.733 119.168 156.829 118.88C157.213 117.152 157.597 115.424 158.077 113.696C158.365 112.064 159.421 110.816 160.861 110.048C162.685 109.088 165.373 109.376 166.621 110.816C167.197 111.392 167.485 112.064 167.773 112.736C168.349 114.272 168.541 116 168.541 117.728C168.733 121.184 168.349 124.64 168.253 128.096C168.253 128.672 168.253 129.152 168.253 129.728C168.253 130.784 168.157 131.84 168.061 132.896C168.061 133.664 167.965 134.432 167.965 135.2C167.965 138.656 167.869 142.112 167.965 145.568C167.965 148.352 168.061 151.232 168.253 154.016C168.349 156.032 168.733 158.048 169.501 159.968C170.269 161.888 171.421 163.616 173.149 164.96C173.437 165.056 173.725 165.248 174.013 165.344C175.357 165.728 176.701 165.728 178.045 165.248C178.813 164.96 179.485 164.48 179.965 163.712C180.925 162.368 181.597 160.832 182.077 159.2C183.229 155.744 183.709 152.288 183.901 148.64C184.189 142.88 184.285 137.216 184.573 131.456C184.765 128.096 185.149 124.832 185.437 121.472C185.533 119.84 185.629 118.208 185.821 116.576C186.013 114.272 186.877 112.256 188.221 110.432C188.413 110.24 188.605 110.048 188.797 110.048C189.757 109.76 190.717 109.376 191.773 109.28C192.541 109.184 193.405 109.376 194.269 109.664C195.037 109.76 195.613 110.336 196.093 111.008C196.765 112.256 197.245 113.408 197.149 114.848C197.053 116.384 197.053 117.824 197.053 119.36C197.053 123.776 197.053 128.096 197.053 132.512C197.053 132.512 197.053 132.512 196.957 132.512ZM220.249 167.456C220.249 169.28 220.249 171.008 220.249 172.832C220.249 174.464 219.577 175.808 218.425 176.96C217.561 177.728 216.505 178.304 215.257 178.304C214.297 178.4 213.337 178.4 212.377 178.304C210.649 178.208 209.113 177.632 207.961 176.288C207.289 175.52 206.809 174.56 206.809 173.504C206.713 171.104 206.713 168.704 206.617 166.304C206.521 162.464 206.425 158.528 206.329 154.688C206.137 149.792 206.041 144.992 205.849 140.096C205.753 136.448 205.561 132.8 205.465 129.152C205.465 126.656 205.465 124.16 205.561 121.664C205.753 119.456 206.041 117.344 206.233 115.232C206.233 115.136 206.233 115.04 206.233 114.944C206.809 113.504 207.385 112.16 208.537 111.104C209.209 110.432 210.073 110.144 210.937 110.24C212.281 110.336 213.529 110.144 214.777 110.144C215.449 110.048 216.121 110.144 216.697 110.144C219.289 110.144 221.785 110.24 224.281 110.24C226.969 110.24 229.657 110.144 232.249 110.144C233.305 110.144 234.361 110.336 235.321 110.624C238.873 111.776 241.273 114.272 243.193 117.344C243.673 118.016 243.865 118.784 244.249 119.552C245.881 123.68 246.745 127.904 246.745 132.416C246.745 134.144 246.745 135.776 246.745 137.504C246.649 140.288 245.881 142.976 245.017 145.568C244.537 147.296 243.577 148.832 242.617 150.272C242.425 150.56 242.137 150.848 241.849 151.136C240.409 152.384 240.121 154.208 241.081 155.84C241.561 156.8 241.945 157.76 242.425 158.624C243.001 159.968 243.577 161.216 244.153 162.56C244.153 162.752 244.249 162.944 244.345 163.04C244.921 164.768 245.593 166.4 246.457 168.032C246.841 168.704 246.937 169.568 247.129 170.432C247.321 171.392 247.417 172.352 247.513 173.408C247.705 174.752 246.841 175.712 245.977 176.576C245.209 177.344 244.345 177.248 243.481 177.248C243.001 177.248 242.425 177.344 241.945 177.344C241.081 177.344 240.121 177.44 239.257 177.344C237.913 177.152 236.473 176.864 235.225 176.192C234.361 175.616 233.497 174.944 233.017 173.888C232.633 172.928 232.345 171.968 231.865 171.104C231.289 170.048 230.617 169.088 229.945 168.032C229.081 166.592 228.217 165.152 227.545 163.52C227.353 163.136 227.161 162.848 227.065 162.56C226.777 161.888 226.393 161.216 226.201 160.448C225.817 159.2 224.953 158.432 223.609 158.624C223.033 158.624 222.361 158.72 221.785 158.624C221.209 158.624 220.825 158.912 220.633 159.488C220.345 160.352 220.153 161.312 220.153 162.272C220.153 164 220.249 165.728 220.249 167.456ZM220.249 135.008C220.345 135.008 220.345 135.008 220.345 135.008C220.249 137.216 220.249 139.424 220.153 141.728C220.153 142.304 220.153 142.88 220.153 143.456C220.153 144.992 221.113 145.952 222.649 145.952C223.225 145.952 223.897 145.952 224.569 145.952C224.761 145.952 225.049 145.952 225.241 145.856C226.297 145.472 227.449 145.28 228.505 144.704C229.465 144.32 230.137 143.648 230.809 142.976C231.673 141.92 232.345 140.672 232.633 139.232C233.017 137.12 232.825 134.912 232.825 132.8C232.825 132.032 232.729 131.264 232.633 130.496C232.537 129.44 232.057 128.576 231.769 127.616C231.385 126.656 230.809 125.792 230.233 125.024C229.081 123.68 227.641 123.008 225.913 123.008C225.337 123.008 224.665 123.008 224.089 123.008C223.129 123.104 222.169 123.392 221.497 124.064C220.633 124.736 220.345 125.696 220.249 126.848C220.249 129.536 220.249 132.224 220.249 135.008Z" fill="#49261D"/>
<path d="M20.848 107.4C22.7253 107.635 24.2507 108.605 25.424 110.312C26.6187 112.019 27.0773 114.269 26.8 117.064C26.416 119.283 25.5733 121.224 24.272 122.888C22.9707 124.552 21.4347 126.035 19.664 127.336C22.032 131.709 25.776 136.648 30.896 142.152C31.6853 140.723 32.1227 139.048 32.208 137.128C32.3147 135.208 31.9733 133.021 31.184 130.568C30.9493 129.608 31.28 128.925 32.176 128.52C33.136 128.307 33.8187 128.648 34.224 129.544C35.2053 132.573 35.5573 135.336 35.28 137.832C35.024 140.328 34.288 142.525 33.072 144.424C35.0987 146.451 36.784 148.083 38.128 149.32C39.472 150.536 40.144 151.144 40.144 151.144C40.8267 151.848 40.8907 152.605 40.336 153.416C39.632 154.099 38.8747 154.163 38.064 153.608C38.064 153.608 37.4027 153.011 36.08 151.816C34.7573 150.6 33.0933 148.989 31.088 146.984C29.296 148.733 27.3227 150.003 25.168 150.792C23.0133 151.581 21.0187 151.987 19.184 152.008C15.216 151.965 12.112 150.749 9.872 148.36C7.65333 145.971 6.78933 142.952 7.28 139.304C7.64267 137.256 8.336 135.4 9.36 133.736C10.384 132.051 11.472 130.611 12.624 129.416C13.7973 128.2 14.768 127.272 15.536 126.632C14.5973 124.712 13.8827 122.792 13.392 120.872C12.9227 118.931 12.7733 117.032 12.944 115.176C13.2853 112.573 14.2133 110.589 15.728 109.224C17.264 107.837 18.9707 107.229 20.848 107.4ZM20.496 110.6C19.5787 110.493 18.6827 110.803 17.808 111.528C16.9547 112.253 16.4 113.576 16.144 115.496C15.9733 118.163 16.6453 121.128 18.16 124.392C19.6533 123.219 20.88 122.067 21.84 120.936C22.8 119.805 23.3973 118.387 23.632 116.68C23.7813 115.251 23.7067 114.099 23.408 113.224C23.1307 112.349 22.7253 111.709 22.192 111.304C21.6587 110.899 21.0933 110.664 20.496 110.6ZM17.104 129.544C16.1227 130.355 14.8853 131.667 13.392 133.48C11.92 135.293 10.9387 137.405 10.448 139.816C10.0853 142.653 10.7893 144.883 12.56 146.504C14.3307 148.104 16.624 148.861 19.44 148.776C23.0027 148.563 26.16 147.219 28.912 144.744C24.2187 139.859 20.2827 134.792 17.104 129.544Z" fill="#49261D"/>
</svg>
