<svg width="633" height="633" viewBox="0 0 633 633" fill="none" xmlns="http://www.w3.org/2000/svg">
<path d="M271.051 435.578C271.175 432.682 275.972 431.529 277.396 434.056C284.077 445.917 295.476 463.361 308.408 471.292C321.342 479.223 342.057 481.473 355.659 482.051C358.555 482.175 359.705 486.972 357.178 488.396C345.317 495.077 327.875 506.477 319.945 519.408C312.014 532.342 309.764 553.057 309.186 566.659C309.062 569.555 304.262 570.705 302.84 568.178C296.157 556.317 284.76 538.876 271.826 530.945C258.894 523.014 238.179 520.764 224.578 520.186C221.681 520.062 220.53 515.262 223.057 513.84C234.917 507.157 252.361 495.76 260.292 482.826C268.223 469.894 270.473 449.179 271.051 435.578Z" fill="#FF696C"/>
<path opacity="0.5" d="M487.724 409.2C487.5 406.31 482.441 405.096 480.93 407.573C476.385 415.024 469.831 424.015 462.549 428.483C455.264 432.951 444.276 434.713 435.575 435.385C432.685 435.61 431.471 440.668 433.948 442.18C441.399 446.724 450.39 453.276 454.858 460.56C459.326 467.845 461.088 478.833 461.76 487.534C461.985 490.425 467.043 491.638 468.555 489.161C473.099 481.71 479.651 472.719 486.935 468.251C494.22 463.783 505.208 462.021 513.909 461.349C516.8 461.125 518.013 456.066 515.536 454.555C508.085 450.01 499.094 443.456 494.626 436.174C490.158 428.889 488.397 417.901 487.724 409.2Z" fill="#FF696C"/>
<path d="M387.802 105.548L381.412 97.4751C356.709 66.2714 344.355 50.6695 329.986 52.9728C315.616 55.2759 308.743 73.9586 295.002 111.324L291.446 120.991C287.54 131.609 285.589 136.918 281.843 140.815C278.098 144.712 272.984 146.755 262.759 150.841L253.448 154.562L246.911 157.177C215.274 169.871 199.332 177.064 197.297 191.04C195.126 205.949 210.215 218.703 240.393 244.21L248.201 250.809C256.776 258.057 261.064 261.682 263.522 266.622C265.981 271.562 266.33 277.257 267.031 288.651L267.667 299.021C270.13 339.114 271.362 359.159 284.391 366.069C297.418 372.979 313.615 362.179 346.008 340.578L354.39 334.989C363.595 328.851 368.198 325.781 373.462 324.94C378.727 324.096 384.054 325.573 394.715 328.527L404.418 331.217C441.926 341.614 460.682 346.813 470.905 336.176C481.128 325.539 476.05 306.111 465.891 267.253L463.264 257.199C460.378 246.157 458.933 240.636 459.729 235.174C460.523 229.713 463.469 224.93 469.356 215.364L474.716 206.654C495.436 172.989 505.796 156.157 499.086 142.672C492.374 129.186 473.038 127.979 434.367 125.565L424.363 124.94C413.373 124.254 407.879 123.912 403.105 121.38C398.334 118.848 394.823 114.415 387.802 105.548Z" fill="#FFD634"/>
<path opacity="0.5" d="M233.023 351.473C176.652 379.014 129.747 422.633 112.053 474.755C92.204 350.592 119.736 270.412 163.87 220.582C167.673 228.355 172.615 234.79 177.055 239.82C186.283 250.275 199.532 261.468 212.984 272.834L222.664 281.012C224.5 282.566 225.927 283.774 227.141 284.821C227.264 286.517 227.386 288.498 227.544 291.067L228.33 303.872C229.388 321.145 230.42 338.009 233.023 351.473Z" fill="#382F0B"/>
</svg>
