<svg width="523" height="523" viewBox="0 0 523 523" fill="none" xmlns="http://www.w3.org/2000/svg">
<path d="M261.5 65.375L305.861 177.853C309.956 188.236 312.002 193.428 315.138 197.805C317.916 201.685 321.314 205.083 325.195 207.862C329.573 210.997 334.764 213.044 345.147 217.139L457.625 261.5L345.147 305.861C334.764 309.956 329.573 312.002 325.195 315.138C321.314 317.916 317.916 321.314 315.138 325.195C312.002 329.573 309.956 334.764 305.861 345.147L261.5 457.625L217.139 345.147C213.044 334.764 210.997 329.573 207.862 325.195C205.083 321.314 201.685 317.916 197.805 315.138C193.428 312.002 188.236 309.956 177.853 305.861L65.375 261.5L177.853 217.139C188.236 213.044 193.428 210.997 197.805 207.862C201.685 205.083 205.083 201.685 207.862 197.805C210.997 193.428 213.044 188.236 217.139 177.853L261.5 65.375Z" stroke="#FFD634" stroke-width="66.6667" stroke-linecap="round" stroke-linejoin="round"/>
</svg>
